<?xml version="1.0" encoding="UTF-8"?>
<svg version="1.1" xmlns="http://www.w3.org/2000/svg" width="500" height="500">
<path d="M0 0 C1.61358398 -0.01836914 1.61358398 -0.01836914 3.25976562 -0.03710938 C4.28650391 -0.03904297 5.31324219 -0.04097656 6.37109375 -0.04296875 C7.79119751 -0.04913208 7.79119751 -0.04913208 9.23999023 -0.05541992 C11.5625 0.1875 11.5625 0.1875 13.5625 2.1875 C13.80300903 4.7817688 13.80300903 4.7817688 13.78955078 8.10595703 C13.78939972 9.34709259 13.78924866 10.58822815 13.78909302 11.86697388 C13.778879 13.2264217 13.768447 14.5858679 13.7578125 15.9453125 C13.75408284 17.33250729 13.75123565 18.71970471 13.74923706 20.10690308 C13.74159684 23.75990051 13.72194516 27.41273917 13.6998291 31.06567383 C13.67937896 34.79245862 13.67023713 38.51926904 13.66015625 42.24609375 C13.63869951 49.55996825 13.60455903 56.87371189 13.5625 64.1875 C8.23611107 64.88539521 3.1379424 65.32341782 -2.25 65.3125 C-3.53519531 65.31507813 -4.82039062 65.31765625 -6.14453125 65.3203125 C-9.4375 65.1875 -9.4375 65.1875 -12.4375 64.1875 C-12.4606271 55.99059439 -12.47841696 47.79370232 -12.48931217 39.59677219 C-12.4945402 35.79098423 -12.50163638 31.98521852 -12.51293945 28.17944336 C-12.5237712 24.50957456 -12.52977744 20.83972722 -12.53237724 17.16984367 C-12.53423097 15.76675008 -12.5378506 14.36365771 -12.54323006 12.9605732 C-12.55044419 11.0018032 -12.55090809 9.0430118 -12.55102539 7.08422852 C-12.553246 5.96726089 -12.55546661 4.85029327 -12.55775452 3.69947815 C-12.27484431 -2.21018967 -4.56869872 0.00272758 0 0 Z " fill="#FD6554" transform="translate(249.4375,81.8125)"/>
<path d="M0 0 C1.07636719 0.04833984 2.15273437 0.09667969 3.26171875 0.14648438 C4.38964844 0.20255859 5.51757812 0.25863281 6.6796875 0.31640625 C7.81535156 0.36861328 8.95101562 0.42082031 10.12109375 0.47460938 C12.93255381 0.60455081 15.74368215 0.73952539 18.5546875 0.87890625 C18.5778146 9.07581186 18.59560446 17.27270393 18.60649967 25.46963406 C18.6117277 29.27542202 18.61882388 33.08118773 18.63012695 36.88696289 C18.6409587 40.55683169 18.64696494 44.22667903 18.64956474 47.89656258 C18.65141847 49.29965617 18.6550381 50.70274854 18.66041756 52.10583305 C18.66763169 54.06460305 18.66809559 56.02339445 18.66821289 57.98217773 C18.6704335 59.09914536 18.67265411 60.21611298 18.67494202 61.3669281 C18.5546875 63.87890625 18.5546875 63.87890625 17.5546875 64.87890625 C15.87083675 64.97825401 14.18287153 65.00970675 12.49609375 65.01171875 C11.47064453 65.01300781 10.44519531 65.01429688 9.38867188 65.015625 C7.76928711 65.00982422 7.76928711 65.00982422 6.1171875 65.00390625 C5.04146484 65.00777344 3.96574219 65.01164062 2.85742188 65.015625 C1.83068359 65.01433594 0.80394531 65.01304687 -0.25390625 65.01171875 C-1.20064209 65.01059082 -2.14737793 65.00946289 -3.12280273 65.00830078 C-5.4453125 64.87890625 -5.4453125 64.87890625 -7.4453125 63.87890625 C-7.4453125 43.08890625 -7.4453125 22.29890625 -7.4453125 0.87890625 C-4.79709238 -0.44520381 -2.95593056 -0.14001776 0 0 Z " fill="#FD6653" transform="translate(244.4453125,353.12109375)"/>
<path d="M0 0 C1.11696762 0.00222061 2.23393524 0.00444122 3.38475037 0.00672913 C4.64598221 0.00680466 5.90721405 0.00688019 7.20666504 0.00695801 C8.59341979 0.01206542 9.98017414 0.01728142 11.3669281 0.02259827 C12.77797394 0.0244625 14.18902042 0.02588638 15.60006714 0.02688599 C19.3204272 0.03071072 23.04074845 0.04054062 26.76109314 0.05158997 C30.55482966 0.06180504 34.34857243 0.06638381 38.14231873 0.07142639 C45.59090416 0.08216294 53.03945758 0.09923882 60.48802185 0.12025452 C60.71427167 3.70269242 60.91589366 7.28610553 61.11302185 10.87025452 C61.17747498 11.88603577 61.2419281 12.90181702 61.30833435 13.94837952 C61.35989685 14.92806702 61.41145935 15.90775452 61.46458435 16.91712952 C61.51695251 17.81786194 61.56932068 18.71859436 61.62327576 19.6466217 C61.4776784 22.30942399 60.8449558 23.85097931 59.48802185 26.12025452 C51.56915471 26.14339928 43.65030165 26.16118052 35.73140907 26.17206669 C32.05456474 26.17729084 28.37774351 26.18438002 24.70091248 26.19569397 C21.15423225 26.20653945 17.60757428 26.21253489 14.06087875 26.21513176 C12.70606002 26.216983 11.35124254 26.22059789 9.99643326 26.22598457 C8.1025282 26.23321689 6.20860087 26.23366276 4.31468201 26.23377991 C2.69585617 26.23711082 2.69585617 26.23711082 1.04432678 26.24050903 C-1.51197815 26.12025452 -1.51197815 26.12025452 -3.51197815 25.12025452 C-3.54084798 21.14110293 -3.55873221 17.16197798 -3.57447815 13.18275452 C-3.58285706 12.04644592 -3.59123596 10.91013733 -3.59986877 9.73939514 C-3.60309143 8.6598053 -3.60631409 7.58021545 -3.6096344 6.46791077 C-3.61487122 5.46767883 -3.62010803 4.4674469 -3.62550354 3.43690491 C-3.4663564 0.18927653 -3.2597899 0.15605409 0 0 Z " fill="#FA6654" transform="translate(85.51197814941406,236.87974548339844)"/>
<path d="M0 0 C8.04923983 -0.04628835 16.09842429 -0.08185126 24.14776421 -0.10362434 C27.8851783 -0.11407298 31.6225015 -0.1282517 35.35986328 -0.15087891 C38.964905 -0.17256904 42.56985917 -0.18456049 46.17496109 -0.18975449 C47.55211898 -0.19345716 48.92927194 -0.20068734 50.30639267 -0.21146011 C52.23139545 -0.22592335 54.15648587 -0.22681648 56.08154297 -0.22705078 C57.17852509 -0.231492 58.2755072 -0.23593323 59.4057312 -0.24050903 C62 0 62 0 64 2 C64.24291992 4.32250977 64.24291992 4.32250977 64.23046875 7.19140625 C64.22853516 8.21814453 64.22660156 9.24488281 64.22460938 10.30273438 C64.21236328 11.37845703 64.20011719 12.45417969 64.1875 13.5625 C64.1865332 15.18188477 64.1865332 15.18188477 64.18554688 16.83398438 C64.14014598 24.85985402 64.14014598 24.85985402 63 26 C61.07238183 26.09920863 59.14110646 26.12799365 57.2109375 26.12939453 C55.9729541 26.13254669 54.7349707 26.13569885 53.45947266 26.13894653 C52.09798141 26.13715675 50.73649049 26.1351058 49.375 26.1328125 C47.98876936 26.13348559 46.60253883 26.13445566 45.21630859 26.13571167 C42.30760578 26.1371884 39.39893363 26.1350349 36.49023438 26.13037109 C32.75403402 26.12467381 29.01790548 26.12795294 25.28170776 26.13394356 C22.41820734 26.13754985 19.55472407 26.13641027 16.69122314 26.13381577 C15.31325268 26.13314668 13.93528068 26.13397426 12.55731201 26.13629532 C10.63456246 26.13882292 8.71180748 26.13429024 6.7890625 26.12939453 C5.14478271 26.12820114 5.14478271 26.12820114 3.46728516 26.12698364 C1 26 1 26 0 25 C-0.08737645 23.14630389 -0.10698153 21.28932459 -0.09765625 19.43359375 C-0.09443359 18.30888672 -0.09121094 17.18417969 -0.08789062 16.02539062 C-0.07951172 14.84138672 -0.07113281 13.65738281 -0.0625 12.4375 C-0.05798828 11.24962891 -0.05347656 10.06175781 -0.04882812 8.83789062 C-0.03699675 5.89187774 -0.02051287 2.94596319 0 0 Z " fill="#FC6654" transform="translate(354,237)"/>
<path d="M0 0 C1.18836486 2.3560368 2.11661264 4.53494606 3 7 C3.47179687 8.16917969 3.94359375 9.33835937 4.4296875 10.54296875 C4.90664062 11.74566406 5.38359375 12.94835937 5.875 14.1875 C7.71308327 18.80779368 9.57641429 23.41441987 11.5 28 C14.42040752 34.96550272 17.2076865 41.98236755 20 49 C20.58201172 50.30130859 20.58201172 50.30130859 21.17578125 51.62890625 C22.07818425 54.22491868 22.15591925 56.27141307 22 59 C4.76924545 67.01356783 4.76924545 67.01356783 0.453125 66.98046875 C-2 66 -2 66 -3.5546875 63.18359375 C-3.99039063 61.94738281 -4.42609375 60.71117187 -4.875 59.4375 C-5.37993683 58.05753812 -5.88785043 56.67866253 -6.3984375 55.30078125 C-6.65850586 54.58744629 -6.91857422 53.87411133 -7.18652344 53.13916016 C-8.48061368 49.73615334 -9.9970274 46.43962821 -11.5 43.125 C-14.3242723 36.80660593 -16.73723149 30.39975038 -18.95898438 23.84619141 C-19.18392578 23.18409668 -19.40886719 22.52200195 -19.640625 21.83984375 C-19.96643555 20.87860596 -19.96643555 20.87860596 -20.29882812 19.89794922 C-21.014534 17.96065902 -21.85770406 16.12304423 -22.734375 14.25390625 C-24.34589924 10.11069733 -24.34589924 10.11069733 -23 7 C-21.20581055 5.7956543 -21.20581055 5.7956543 -18.88671875 4.82421875 C-18.05076172 4.47166016 -17.21480469 4.11910156 -16.35351562 3.75585938 C-15.47373047 3.40330078 -14.59394531 3.05074219 -13.6875 2.6875 C-12.38522461 2.1296582 -12.38522461 2.1296582 -11.05664062 1.56054688 C-3.5391046 -1.53762415 -3.5391046 -1.53762415 0 0 Z " fill="#FA6754" transform="translate(200,91)"/>
<path d="M0 0 C4.12579929 1.33010843 8.12783546 2.82343994 12.125 4.5 C13.13820313 4.9228125 14.15140625 5.345625 15.1953125 5.78125 C17.50834959 6.78635804 19.76041342 7.84270167 22 9 C21.61489828 14.39142409 20.66295455 18.1470013 18.1015625 22.8828125 C16.51402781 25.93403166 15.31380653 29.10951059 14.05859375 32.30859375 C11.20861653 39.55447679 8.16997732 46.69515995 4.875 53.75 C2.68476087 58.44095031 0.72259357 63.11931823 -1 68 C-5.37569401 67.41961734 -9.01944628 66.32057626 -13.0625 64.5625 C-14.06410156 64.13066406 -15.06570313 63.69882813 -16.09765625 63.25390625 C-17.53431641 62.63322266 -17.53431641 62.63322266 -19 62 C-20.66431392 61.32748131 -22.33018263 60.65873529 -24 60 C-23.83551237 50.78869263 -19.84197356 43.17307318 -16 35 C-14.99913539 32.85456981 -13.99907627 30.70876357 -13 28.5625 C-12.51917969 27.53253906 -12.03835938 26.50257812 -11.54296875 25.44140625 C-9.38171561 20.62099101 -7.39791047 15.73159592 -5.44726562 10.82250977 C-3.90630802 6.99312186 -2.25168752 3.48297284 0 0 Z " fill="#FB6654" transform="translate(304,91)"/>
<path d="M0 0 C4.09029245 -0.25934825 6.77543086 0.52474592 10.5 2.1875 C14.80232348 4.05922161 19.1118621 5.83862568 23.5 7.5 C28.71220106 9.48796703 33.87085905 11.57689825 39.01171875 13.7421875 C41.07331491 14.60994431 43.13867846 15.46878602 45.20703125 16.3203125 C50.23158899 18.38961248 55.19264054 20.46278251 60 23 C59.26318448 27.8474705 57.5463347 32.21712137 55.75 36.75 C55.31880859 37.91982422 55.31880859 37.91982422 54.87890625 39.11328125 C52.66845703 44.66353584 52.66845703 44.66353584 49.6640625 46.17578125 C46.1992944 45.94716752 43.77577914 44.90272247 40.625 43.4375 C39.38104011 42.87316293 38.13621743 42.31072457 36.890625 41.75 C36.25060547 41.45867187 35.61058594 41.16734375 34.95117188 40.8671875 C31.79574974 39.46477766 28.58755164 38.20216029 25.375 36.9375 C18.88552959 34.36404621 12.43762079 31.70020046 6 29 C2.7997428 27.67123824 -0.40073142 26.34300377 -3.6015625 25.015625 C-5.08666264 24.38675523 -6.55750227 23.72124886 -8 23 C-7.38696372 17.59491957 -5.55619307 13.07560955 -3.4375 8.125 C-3.10814453 7.34125 -2.77878906 6.5575 -2.43945312 5.75 C-1.63203214 3.83091244 -0.81680231 1.9151135 0 0 Z " fill="#FA6755" transform="translate(350,278)"/>
<path d="M0 0 C1.25578408 2.48071351 2.11461073 4.62737806 2.9375 7.25 C3.43976584 8.71890613 3.94634572 10.18634359 4.45703125 11.65234375 C4.71049316 12.38694824 4.96395508 13.12155273 5.22509766 13.87841797 C6.34517182 16.94503563 7.71835268 19.86810724 9.125 22.8125 C11.34978701 27.50414928 13.22518494 32.19218488 14.91796875 37.09765625 C16.66563128 41.78542975 18.81292532 46.30327321 20.92578125 50.8359375 C22.59652928 55.75704989 22.59652928 55.75704989 21 59 C18.5017424 60.33501582 16.33512189 61.2834944 13.6875 62.1875 C12.33677747 62.67972334 10.9865035 63.17317962 9.63671875 63.66796875 C8.43660156 64.10753906 7.23648437 64.54710937 6 65 C4.89591797 65.61294922 4.89591797 65.61294922 3.76953125 66.23828125 C2 67 2 67 -0.06640625 67.046875 C-3.16440707 65.36957355 -3.81534914 62.4082304 -4.9375 59.25 C-5.31817627 58.24151001 -5.31817627 58.24151001 -5.70654297 57.21264648 C-6.48458655 55.14653012 -7.24276565 53.07381778 -8 51 C-8.87007769 48.68564349 -9.74468712 46.37298274 -10.625 44.0625 C-10.98851562 43.08410156 -11.35203125 42.10570312 -11.7265625 41.09765625 C-12.7123783 38.69964421 -13.76163493 36.4752295 -14.94921875 34.1796875 C-17.11011064 29.93327191 -18.67349051 25.57306854 -20.1875 21.0625 C-21.48947157 16.16072605 -21.48947157 16.16072605 -24 12 C-24.04063832 10.33382885 -24.042721 8.66611905 -24 7 C-20.94682321 5.62407798 -17.88125974 4.27826374 -14.8125 2.9375 C-13.94818359 2.54755859 -13.08386719 2.15761719 -12.19335938 1.75585938 C-11.35224609 1.39169922 -10.51113281 1.02753906 -9.64453125 0.65234375 C-8.87471924 0.31195068 -8.10490723 -0.02844238 -7.31176758 -0.37915039 C-4.46762083 -1.14297605 -2.77427051 -0.9606403 0 0 Z " fill="#FC6653" transform="translate(302,343)"/>
<path d="M0 0 C1.2065625 0.0309375 1.2065625 0.0309375 2.4375 0.0625 C3.78259414 3.1408338 5.11147553 6.22590925 6.4375 9.3125 C6.8190625 10.18519531 7.200625 11.05789063 7.59375 11.95703125 C7.9546875 12.80136719 8.315625 13.64570313 8.6875 14.515625 C9.19023437 15.67819824 9.19023437 15.67819824 9.703125 16.86425781 C10.4375 19.0625 10.4375 19.0625 10.4375 23.0625 C4.55334326 26.11354423 -1.39197384 28.65408468 -7.5625 31.0625 C-10.0632624 32.0606468 -12.56328236 33.06050521 -15.0625 34.0625 C-18.48189174 35.43136164 -21.90144706 36.79976184 -25.32421875 38.16015625 C-26.52498047 38.63775391 -26.52498047 38.63775391 -27.75 39.125 C-28.51957031 39.43050781 -29.28914063 39.73601562 -30.08203125 40.05078125 C-31.96342138 40.8181514 -33.83404904 41.61197387 -35.69921875 42.41796875 C-36.76785156 42.87816406 -37.83648437 43.33835937 -38.9375 43.8125 C-39.91460937 44.24046875 -40.89171875 44.6684375 -41.8984375 45.109375 C-44.5625 46.0625 -44.5625 46.0625 -48.5625 46.0625 C-52.3772198 38.70554038 -56.11736205 31.28080977 -57.5625 23.0625 C-50.12984002 19.02394487 -42.72469741 15.88245486 -34.70336914 13.24365234 C-31.19068505 12.07040172 -27.89732258 10.78631283 -24.60546875 9.08203125 C-20.41083995 6.9121472 -16.09541066 5.37553017 -11.625 3.875 C-0.20721925 0.00505413 -0.20721925 0.00505413 0 0 Z " fill="#FC6553" transform="translate(147.5625,277.9375)"/>
<path d="M0 0 C1.74609375 1.57421875 1.74609375 1.57421875 3.4375 3.6875 C4.03949219 4.41582031 4.64148438 5.14414062 5.26171875 5.89453125 C5.83535156 6.58933594 6.40898437 7.28414063 7 8 C9.61388452 10.73269746 11.85581402 12.90387601 15 15 C14.58071383 19.89167203 12.55713565 21.76624032 9 25 C8.154375 25.886875 7.30875 26.77375 6.4375 27.6875 C4.26749684 29.74622095 2.61066967 30.69466516 0 32 C-0.33 32.99 -0.66 33.98 -1 35 C-2.6015625 36.54296875 -2.6015625 36.54296875 -4.625 38.1875 C-7.51614633 40.63108453 -10.06089318 43.10566817 -12.5 46 C-15.45474543 49.48767897 -18.65107439 52.43724404 -22.1328125 55.390625 C-24.55462149 57.47804195 -26.77514043 59.70561356 -29 62 C-33.758233 59.51783325 -37.11634242 56.11579258 -40.8125 52.3125 C-41.40998047 51.70599609 -42.00746094 51.09949219 -42.62304688 50.47460938 C-44.08664185 48.98759688 -45.54396102 47.49441189 -47 46 C-45.37908981 41.55915017 -43.47891629 39.2362012 -40 36 C-39.175 35.175 -38.35 34.35 -37.5 33.5 C-33.33333333 29.33333333 -29.16666667 25.16666667 -25 21 C-24.13375 20.0925 -23.2675 19.185 -22.375 18.25 C-20 16 -20 16 -17 15 C-16.29848848 13.6846659 -15.63474075 12.34882408 -15 11 C-13.5 9.25 -13.5 9.25 -12 8 C-11.34 8 -10.68 8 -10 8 C-9.67 7.01 -9.34 6.02 -9 5 C-4.69767442 0 -4.69767442 0 0 0 Z " fill="#FB6755" transform="translate(170,315)"/>
<path d="M0 0 C5.26715081 0.59722025 9.54001911 2.33740175 14.3125 4.5 C15.04017578 4.82097656 15.76785156 5.14195312 16.51757812 5.47265625 C21.84665179 7.84665179 21.84665179 7.84665179 23 9 C22.6103168 14.89109303 20.67886743 19.51076227 18.1875 24.8125 C17.4557252 26.4121636 16.7252443 28.01241977 15.99609375 29.61328125 C15.64788574 30.37334473 15.29967773 31.1334082 14.94091797 31.91650391 C13.14785705 35.88691954 11.56917747 39.93733505 10 44 C2.94970986 62.0754352 2.94970986 62.0754352 -1 68 C-5.68480397 66.49182827 -10.24745269 64.76797263 -14.8125 62.9375 C-15.8324707 62.5343457 -15.8324707 62.5343457 -16.87304688 62.12304688 C-21.877894 60.122106 -21.877894 60.122106 -23 59 C-23.05803564 53.59107871 -22.03315947 49.4571314 -19.1015625 44.859375 C-17.38509908 41.96208214 -16.27480836 38.85937989 -15.05859375 35.7265625 C-12.23675909 28.45851602 -9.17411891 21.31370758 -5.875 14.25 C-3.68476087 9.55904969 -1.72259357 4.88068177 0 0 Z " fill="#FC6552" transform="translate(197,341)"/>
<path d="M0 0 C1.31787109 1.79418945 1.31787109 1.79418945 2.2734375 4.11328125 C2.79744141 5.3672168 2.79744141 5.3672168 3.33203125 6.64648438 C3.67621094 7.52626953 4.02039063 8.40605469 4.375 9.3125 C4.92607422 10.61477539 4.92607422 10.61477539 5.48828125 11.94335938 C8.51949764 19.39557627 8.51949764 19.39557627 7 23 C4.2890625 24.421875 4.2890625 24.421875 0.625 25.75 C-0.74170913 26.26082238 -2.10755462 26.77395971 -3.47265625 27.2890625 C-4.20371582 27.56137695 -4.93477539 27.83369141 -5.68798828 28.11425781 C-9.77331091 29.67936346 -13.78841711 31.40988233 -17.8125 33.125 C-24.18147757 35.82153022 -30.56491611 38.46462243 -37 41 C-39.62412103 42.05494203 -42.24776515 43.11105787 -44.87109375 44.16796875 C-46.56197271 44.82880768 -48.27773353 45.42591118 -50 46 C-52.33403752 43.88139945 -53.62213416 42.03519436 -54.82421875 39.12890625 C-55.13037109 38.38962891 -55.43652344 37.65035156 -55.75195312 36.88867188 C-56.06068359 36.12103516 -56.36941406 35.35339844 -56.6875 34.5625 C-57.00783203 33.79873047 -57.32816406 33.03496094 -57.65820312 32.24804688 C-59.20252205 28.46463015 -60 26.19169581 -60 22 C-52.09141938 17.89925449 -43.93871675 14.74098191 -35.625 11.5625 C-31.37049131 9.93152187 -27.14294433 8.2536428 -22.9375 6.5 C-21.47957031 5.89285156 -21.47957031 5.89285156 -19.9921875 5.2734375 C-17.90419591 4.38481445 -15.82669644 3.47130659 -13.7578125 2.5390625 C-12.70335937 2.07242188 -11.64890625 1.60578125 -10.5625 1.125 C-9.61503906 0.69445312 -8.66757812 0.26390625 -7.69140625 -0.1796875 C-4.56020875 -1.13404378 -3.09140533 -1.01012958 0 0 Z " fill="#FB6653" transform="translate(402,177)"/>
<path d="M0 0 C4.73766098 0.60310715 8.8715474 1.97899129 13.25 3.8125 C14.58462232 4.35940696 15.91925775 4.90628194 17.25390625 5.453125 C17.89730957 5.71931641 18.54071289 5.98550781 19.20361328 6.25976562 C21.52312728 7.21556427 23.85459929 8.13992662 26.1875 9.0625 C37.22344784 13.48412771 48.1207135 18.2092482 59 23 C58.38696372 28.40508043 56.55619307 32.92439045 54.4375 37.875 C54.10814453 38.65875 53.77878906 39.4425 53.43945312 40.25 C52.63203214 42.16908756 51.81680231 44.0848865 51 46 C46.89767901 46.260583 44.17943961 45.46709915 40.4375 43.8125 C39.50808594 43.40644531 38.57867187 43.00039062 37.62109375 42.58203125 C36.42613281 42.05996094 35.23117188 41.53789062 34 41 C24.66582927 37.04825659 15.25655058 33.29420183 5.828125 29.57421875 C0.7734774 27.56595412 -4.19806625 25.5599159 -9 23 C-8.33673121 17.8307147 -6.08075343 13.37748635 -3.9375 8.6875 C-3.37192383 7.43356445 -3.37192383 7.43356445 -2.79492188 6.15429688 C-1.86788193 4.10072738 -0.93613122 2.04943713 0 0 Z " fill="#FB6755" transform="translate(99,176)"/>
<path d="M0 0 C4.00707194 2.17526763 6.86264648 4.7057788 10 8 C10.86625 8.825 11.7325 9.65 12.625 10.5 C14.88032828 12.87402977 16.44358595 15.13292149 18 18 C3 33 3 33 0.75 35.1875 C-1.66129668 37.65359888 -3.95728928 40.17468085 -6.25 42.75 C-10.0334985 46.98121248 -13.94069669 51.04095606 -17.99609375 55.01171875 C-19.20681504 56.21299971 -20.39468037 57.4388685 -21.53515625 58.70703125 C-22.8125 60.125 -22.8125 60.125 -25 62 C-28.80283121 62.11883848 -31.30059925 59.4482937 -34 57 C-35.82442949 54.96614373 -37.60165919 52.90298784 -39.3515625 50.8046875 C-41.06632331 48.78227744 -41.06632331 48.78227744 -44 47 C-43.65600604 44.11536497 -43.39574352 42.4295265 -41.3984375 40.26171875 C-40.39683594 39.48248047 -40.39683594 39.48248047 -39.375 38.6875 C-36.45470101 36.29202343 -33.92884994 33.8933535 -31.5 31 C-28.5816481 27.55103867 -25.41590462 24.69765343 -21.97265625 21.78515625 C-19.29944101 19.36602879 -17.0501541 16.66040393 -14.72265625 13.9140625 C-12.54238223 11.49153581 -10.15136327 9.45247513 -7.640625 7.3828125 C-5.277074 5.39067666 -3.15304891 3.21637388 -1 1 C-0.67 0.67 -0.34 0.34 0 0 Z " fill="#FB6855" transform="translate(359,123)"/>
<path d="M0 0 C3.4994886 1.24981736 5.13682361 3.20050597 7.625 5.9375 C8.8625 7.175 8.8625 7.175 10.125 8.4375 C19.29166667 17.60416667 28.45833333 26.77083333 37.625 35.9375 C38.5325 36.7625 39.44 37.5875 40.375 38.4375 C42.80755908 41.14034343 43.0902511 42.45000717 43.625 45.9375 C43.10550781 46.38480469 42.58601563 46.83210938 42.05078125 47.29296875 C34.70194915 53.52716499 34.70194915 53.52716499 28.625 60.9375 C25.74036497 60.59350604 24.0545265 60.33324352 21.88671875 58.3359375 C21.36722656 57.66820312 20.84773438 57.00046875 20.3125 56.3125 C17.3013536 52.64533042 14.08878985 49.60478204 10.484375 46.53125 C6.67496189 43.26603877 3.85729669 40.40209339 1.625 35.9375 C0.14 35.4425 0.14 35.4425 -1.375 34.9375 C-2.91796875 33.3359375 -2.91796875 33.3359375 -4.5625 31.3125 C-7.65158566 27.64503234 -10.95314815 24.59133686 -14.67578125 21.578125 C-16.49010298 19.82636609 -17.38820278 18.24169655 -18.375 15.9375 C-17.29992371 14.63895279 -16.21456264 13.34891639 -15.125 12.0625 C-14.22007813 10.98355469 -14.22007813 10.98355469 -13.296875 9.8828125 C-11.39128404 7.95398262 -9.79404085 7.08254706 -7.375 5.9375 C-6.67562468 4.62102881 -6.00770867 3.28727849 -5.375 1.9375 C-2.375 -0.0625 -2.375 -0.0625 0 0 Z " fill="#FB6755" transform="translate(141.375,124.0625)"/>
<path d="M0 0 C2.88463503 0.34399396 4.5704735 0.60425648 6.73828125 2.6015625 C7.51751953 3.60316406 7.51751953 3.60316406 8.3125 4.625 C10.70797657 7.54529899 13.1066465 10.07115006 16 12.5 C19.45036677 15.41954111 22.30449013 18.5871247 25.21875 22.03125 C27.0327946 24.03624666 28.93707677 25.75444957 31 27.5 C34.51456714 30.47648419 37.49669387 33.69273122 40.453125 37.21875 C42.06711402 39.15910617 42.06711402 39.15910617 44.5 41.1875 C46 43 46 43 46.0625 45.4375 C44.66463526 48.80882084 42.69257567 50.55220393 40 53 C39.154375 53.86625 38.30875 54.7325 37.4375 55.625 C31.92105263 61 31.92105263 61 28.5625 61 C25.15246482 59.66925456 23.45316563 57.6984822 21 55 C20.175 54.175 19.35 53.35 18.5 52.5 C11 45 3.5 37.5 -4 30 C-4.9075 29.13375 -5.815 28.2675 -6.75 27.375 C-9 25 -9 25 -10 22 C-10.99 21.566875 -10.99 21.566875 -12 21.125 C-12.66 20.75375 -13.32 20.3825 -14 20 C-14.625 17.4296875 -14.625 17.4296875 -15 15 C-14.48050781 14.55269531 -13.96101563 14.10539062 -13.42578125 13.64453125 C-6.07694915 7.41033501 -6.07694915 7.41033501 0 0 Z " fill="#FB6654" transform="translate(330,315)"/>
<path d="M0 0 C1.07636719 0.04833984 2.15273437 0.09667969 3.26171875 0.14648438 C4.38964844 0.20255859 5.51757812 0.25863281 6.6796875 0.31640625 C7.81535156 0.36861328 8.95101562 0.42082031 10.12109375 0.47460938 C12.93255381 0.60455081 15.74368215 0.73952539 18.5546875 0.87890625 C18.5778146 9.07581186 18.59560446 17.27270393 18.60649967 25.46963406 C18.6117277 29.27542202 18.61882388 33.08118773 18.63012695 36.88696289 C18.6409587 40.55683169 18.64696494 44.22667903 18.64956474 47.89656258 C18.65141847 49.29965617 18.6550381 50.70274854 18.66041756 52.10583305 C18.66763169 54.06460305 18.66809559 56.02339445 18.66821289 57.98217773 C18.6704335 59.09914536 18.67265411 60.21611298 18.67494202 61.3669281 C18.5546875 63.87890625 18.5546875 63.87890625 17.5546875 64.87890625 C15.87083675 64.97825401 14.18287153 65.00970675 12.49609375 65.01171875 C11.47064453 65.01300781 10.44519531 65.01429688 9.38867188 65.015625 C7.76928711 65.00982422 7.76928711 65.00982422 6.1171875 65.00390625 C5.04146484 65.00777344 3.96574219 65.01164062 2.85742188 65.015625 C1.83068359 65.01433594 0.80394531 65.01304687 -0.25390625 65.01171875 C-1.20064209 65.01059082 -2.14737793 65.00946289 -3.12280273 65.00830078 C-5.4453125 64.87890625 -5.4453125 64.87890625 -7.4453125 63.87890625 C-7.4453125 43.08890625 -7.4453125 22.29890625 -7.4453125 0.87890625 C-4.79709238 -0.44520381 -2.95593056 -0.14001776 0 0 Z M-5.4453125 1.87890625 C-6.5064916 5.06244356 -6.53223496 7.20432253 -6.46704102 10.54370117 C-6.44694473 11.70467819 -6.42684845 12.86565521 -6.40614319 14.06181335 C-6.37910812 15.3150087 -6.35207306 16.56820404 -6.32421875 17.859375 C-6.30060776 19.14250076 -6.27699677 20.42562653 -6.25267029 21.74763489 C-6.18989883 25.15569088 -6.12081272 28.56359073 -6.05041504 31.97149658 C-5.9796688 35.45032655 -5.91488951 38.92926705 -5.84960938 42.40820312 C-5.72068652 49.23189292 -5.58454157 56.05541904 -5.4453125 62.87890625 C1.8146875 62.87890625 9.0746875 62.87890625 16.5546875 62.87890625 C16.5546875 42.74890625 16.5546875 22.61890625 16.5546875 1.87890625 C9.2946875 1.87890625 2.0346875 1.87890625 -5.4453125 1.87890625 Z " fill="#E1857D" transform="translate(244.4453125,353.12109375)"/>
<path d="M0 0 C8.04923983 -0.04628835 16.09842429 -0.08185126 24.14776421 -0.10362434 C27.8851783 -0.11407298 31.6225015 -0.1282517 35.35986328 -0.15087891 C38.964905 -0.17256904 42.56985917 -0.18456049 46.17496109 -0.18975449 C47.55211898 -0.19345716 48.92927194 -0.20068734 50.30639267 -0.21146011 C52.23139545 -0.22592335 54.15648587 -0.22681648 56.08154297 -0.22705078 C57.17852509 -0.231492 58.2755072 -0.23593323 59.4057312 -0.24050903 C62 0 62 0 64 2 C64.24291992 4.32250977 64.24291992 4.32250977 64.23046875 7.19140625 C64.22853516 8.21814453 64.22660156 9.24488281 64.22460938 10.30273438 C64.21236328 11.37845703 64.20011719 12.45417969 64.1875 13.5625 C64.1865332 15.18188477 64.1865332 15.18188477 64.18554688 16.83398438 C64.14014598 24.85985402 64.14014598 24.85985402 63 26 C61.07238183 26.09920863 59.14110646 26.12799365 57.2109375 26.12939453 C55.9729541 26.13254669 54.7349707 26.13569885 53.45947266 26.13894653 C52.09798141 26.13715675 50.73649049 26.1351058 49.375 26.1328125 C47.98876936 26.13348559 46.60253883 26.13445566 45.21630859 26.13571167 C42.30760578 26.1371884 39.39893363 26.1350349 36.49023438 26.13037109 C32.75403402 26.12467381 29.01790548 26.12795294 25.28170776 26.13394356 C22.41820734 26.13754985 19.55472407 26.13641027 16.69122314 26.13381577 C15.31325268 26.13314668 13.93528068 26.13397426 12.55731201 26.13629532 C10.63456246 26.13882292 8.71180748 26.13429024 6.7890625 26.12939453 C5.14478271 26.12820114 5.14478271 26.12820114 3.46728516 26.12698364 C1 26 1 26 0 25 C-0.08737645 23.14630389 -0.10698153 21.28932459 -0.09765625 19.43359375 C-0.09443359 18.30888672 -0.09121094 17.18417969 -0.08789062 16.02539062 C-0.07951172 14.84138672 -0.07113281 13.65738281 -0.0625 12.4375 C-0.05798828 11.24962891 -0.05347656 10.06175781 -0.04882812 8.83789062 C-0.03699675 5.89187774 -0.02051287 2.94596319 0 0 Z M1 2 C1 9.26 1 16.52 1 24 C21.13 24 41.26 24 62 24 C62 16.74 62 9.48 62 2 C41.87 2 21.74 2 1 2 Z " fill="#E1867D" transform="translate(354,237)"/>
<path d="M0 0 C1.11696762 0.00222061 2.23393524 0.00444122 3.38475037 0.00672913 C4.64598221 0.00680466 5.90721405 0.00688019 7.20666504 0.00695801 C8.59341979 0.01206542 9.98017414 0.01728142 11.3669281 0.02259827 C12.77797394 0.0244625 14.18902042 0.02588638 15.60006714 0.02688599 C19.3204272 0.03071072 23.04074845 0.04054062 26.76109314 0.05158997 C30.55482966 0.06180504 34.34857243 0.06638381 38.14231873 0.07142639 C45.59090416 0.08216294 53.03945758 0.09923882 60.48802185 0.12025452 C60.48802185 0.45025452 60.48802185 0.78025452 60.48802185 1.12025452 C29.79802185 1.61525452 29.79802185 1.61525452 -1.51197815 2.12025452 C-1.51197815 9.38025452 -1.51197815 16.64025452 -1.51197815 24.12025452 C18.61802185 23.79025452 38.74802185 23.46025452 59.48802185 23.12025452 C59.48802185 24.11025452 59.48802185 25.10025452 59.48802185 26.12025452 C51.56915471 26.14339928 43.65030165 26.16118052 35.73140907 26.17206669 C32.05456474 26.17729084 28.37774351 26.18438002 24.70091248 26.19569397 C21.15423225 26.20653945 17.60757428 26.21253489 14.06087875 26.21513176 C12.70606002 26.216983 11.35124254 26.22059789 9.99643326 26.22598457 C8.1025282 26.23321689 6.20860087 26.23366276 4.31468201 26.23377991 C2.69585617 26.23711082 2.69585617 26.23711082 1.04432678 26.24050903 C-1.51197815 26.12025452 -1.51197815 26.12025452 -3.51197815 25.12025452 C-3.54084798 21.14110293 -3.55873221 17.16197798 -3.57447815 13.18275452 C-3.58285706 12.04644592 -3.59123596 10.91013733 -3.59986877 9.73939514 C-3.60309143 8.6598053 -3.60631409 7.58021545 -3.6096344 6.46791077 C-3.61487122 5.46767883 -3.62010803 4.4674469 -3.62550354 3.43690491 C-3.4663564 0.18927653 -3.2597899 0.15605409 0 0 Z " fill="#E48E87" transform="translate(85.51197814941406,236.87974548339844)"/>
<path d="M0 0 C1.61358398 -0.01836914 1.61358398 -0.01836914 3.25976562 -0.03710938 C4.28650391 -0.03904297 5.31324219 -0.04097656 6.37109375 -0.04296875 C7.79119751 -0.04913208 7.79119751 -0.04913208 9.23999023 -0.05541992 C11.5625 0.1875 11.5625 0.1875 13.5625 2.1875 C13.80300903 4.7817688 13.80300903 4.7817688 13.78955078 8.10595703 C13.78939972 9.34709259 13.78924866 10.58822815 13.78909302 11.86697388 C13.778879 13.2264217 13.768447 14.5858679 13.7578125 15.9453125 C13.75408284 17.33250729 13.75123565 18.71970471 13.74923706 20.10690308 C13.74159684 23.75990051 13.72194516 27.41273917 13.6998291 31.06567383 C13.67937896 34.79245862 13.67023713 38.51926904 13.66015625 42.24609375 C13.63869951 49.55996825 13.60455903 56.87371189 13.5625 64.1875 C11.0875 64.6825 11.0875 64.6825 8.5625 65.1875 C8.5625 64.5275 8.5625 63.8675 8.5625 63.1875 C9.8825 63.1875 11.2025 63.1875 12.5625 63.1875 C12.2325 43.0575 11.9025 22.9275 11.5625 2.1875 C0.6725 2.6825 0.6725 2.6825 -10.4375 3.1875 C-10.7675 23.3175 -11.0975 43.4475 -11.4375 64.1875 C-11.7675 64.1875 -12.0975 64.1875 -12.4375 64.1875 C-12.4606271 55.99059439 -12.47841696 47.79370232 -12.48931217 39.59677219 C-12.4945402 35.79098423 -12.50163638 31.98521852 -12.51293945 28.17944336 C-12.5237712 24.50957456 -12.52977744 20.83972722 -12.53237724 17.16984367 C-12.53423097 15.76675008 -12.5378506 14.36365771 -12.54323006 12.9605732 C-12.55044419 11.0018032 -12.55090809 9.0430118 -12.55102539 7.08422852 C-12.553246 5.96726089 -12.55546661 4.85029327 -12.55775452 3.69947815 C-12.27484431 -2.21018967 -4.56869872 0.00272758 0 0 Z " fill="#E89990" transform="translate(249.4375,81.8125)"/>
<path d="M0 0 C3.0625 1.1875 3.0625 1.1875 6.0625 3.1875 C5.53912603 9.08522163 3.75587472 13.66739013 1.25 19 C0.5182252 20.5996636 -0.2122557 22.19991977 -0.94140625 23.80078125 C-1.28961426 24.56084473 -1.63782227 25.3209082 -1.99658203 26.10400391 C-3.78964295 30.07441954 -5.36832253 34.12483505 -6.9375 38.1875 C-9.71135891 45.29908065 -12.72511079 52.26243147 -15.9375 59.1875 C-17.52022601 56.02204798 -16.26836619 53.44331122 -15.5 50.0625 C-15.21253906 48.78117187 -14.92507812 47.49984375 -14.62890625 46.1796875 C-14.40074219 45.19226563 -14.17257813 44.20484375 -13.9375 43.1875 C-12.9475 43.1875 -11.9575 43.1875 -10.9375 43.1875 C-10.9375 40.2175 -10.9375 37.2475 -10.9375 34.1875 C-9.6175 33.5275 -8.2975 32.8675 -6.9375 32.1875 C-5.87981278 29.85723056 -5.87981278 29.85723056 -5.3125 27.1875 C-4.12282819 22.37282819 -4.12282819 22.37282819 -1.9375 20.1875 C-1.7725 19.176875 -1.6075 18.16625 -1.4375 17.125 C-1.2725 16.155625 -1.1075 15.18625 -0.9375 14.1875 C-0.2775 13.8575 0.3825 13.5275 1.0625 13.1875 C1.75181344 10.83842125 1.75181344 10.83842125 2.1875 8.125 C2.35507813 7.20589844 2.52265625 6.28679687 2.6953125 5.33984375 C2.81648438 4.62957031 2.93765625 3.91929687 3.0625 3.1875 C2.299375 3.06375 1.53625 2.94 0.75 2.8125 C-1.9375 2.1875 -1.9375 2.1875 -4.9375 0.1875 C-2.9375 -0.8125 -2.9375 -0.8125 0 0 Z " fill="#E97469" transform="translate(213.9375,346.8125)"/>
<path d="M0 0 C2.22695405 2.22695405 2.96032175 3.967618 4.125 6.875 C4.47820312 7.73867188 4.83140625 8.60234375 5.1953125 9.4921875 C6 12 6 12 6 16 C0.11584326 19.05104423 -5.82947384 21.59158468 -12 24 C-14.5007622 24.99814673 -17.00071808 25.99816629 -19.5 27 C-20.79685122 27.51828868 -22.0937258 28.03651889 -23.390625 28.5546875 C-25.52752322 29.41037185 -27.66337664 30.26868607 -29.796875 31.1328125 C-35.81413681 33.56654578 -41.88800714 35.81548544 -48 38 C-47.34 36.68 -46.68 35.36 -46 34 C-44.68 34 -43.36 34 -42 34 C-42 33.34 -42 32.68 -42 32 C-41.32453125 31.80664062 -40.6490625 31.61328125 -39.953125 31.4140625 C-38.61507812 31.02347656 -38.61507812 31.02347656 -37.25 30.625 C-36.36828125 30.36976563 -35.4865625 30.11453125 -34.578125 29.8515625 C-32.02093754 29.07832475 -32.02093754 29.07832475 -29.84375 27.90625 C-27.47955933 26.74419018 -25.59834347 26.85564759 -23 27 C-23 26.01 -23 25.02 -23 24 C-21.02 24 -19.04 24 -17 24 C-17 23.34 -17 22.68 -17 22 C-15.06441401 21.32779649 -13.12645628 20.66241923 -11.1875 20 C-10.10855469 19.62875 -9.02960938 19.2575 -7.91796875 18.875 C-5 18 -5 18 -2 18 C-2 17.34 -2 16.68 -2 16 C-0.02 15.67 1.96 15.34 4 15 C3.505 13.02 3.505 13.02 3 11 C2.34 11 1.68 11 1 11 C0.63890458 9.35567294 0.28629924 7.7094792 -0.0625 6.0625 C-0.35833984 4.68771484 -0.35833984 4.68771484 -0.66015625 3.28515625 C-0.77230469 2.53105469 -0.88445312 1.77695312 -1 1 C-0.67 0.67 -0.34 0.34 0 0 Z " fill="#E68982" transform="translate(152,285)"/>
<path d="M0 0 C0.33 0 0.66 0 1 0 C1 18.81 1 37.62 1 57 C-4.68498489 58.6242814 -8.11632692 59.24997049 -13.8125 59.1875 C-15.11832031 59.18105469 -16.42414063 59.17460937 -17.76953125 59.16796875 C-21 59 -21 59 -23 58 C-23 42.82 -23 27.64 -23 12 C-22.67 12 -22.34 12 -22 12 C-22 26.19 -22 40.38 -22 55 C-10.89616787 56.09268736 -10.89616787 56.09268736 0 55 C0 36.85 0 18.7 0 0 Z " fill="#DF6A61" transform="translate(261,88)"/>
<path d="M0 0 C1.921875 0.6796875 1.921875 0.6796875 4 2 C4.828125 4.3828125 4.828125 4.3828125 5.25 7.125 C5.39953125 8.03507812 5.5490625 8.94515625 5.703125 9.8828125 C5.80109375 10.58148438 5.8990625 11.28015625 6 12 C6.66 12 7.32 12 8 12 C8.33 14.64 8.66 17.28 9 20 C9.66 20 10.32 20 11 20 C11.103125 20.598125 11.20625 21.19625 11.3125 21.8125 C11.83254644 24.07972457 11.83254644 24.07972457 13.5625 25.5 C15 27 15 27 15 31 C15.75925781 30.7834375 16.51851563 30.566875 17.30078125 30.34375 C18.29464844 30.0653125 19.28851563 29.786875 20.3125 29.5 C21.29863281 29.2215625 22.28476562 28.943125 23.30078125 28.65625 C26 28 26 28 29 28 C29 27.34 29 26.68 29 26 C30.65 26.33 32.3 26.66 34 27 C31.63423284 29.36576716 29.77553737 29.91885045 26.625 31 C22.6556623 32.3561303 22.6556623 32.3561303 18.8984375 34.1875 C17 35 17 35 14.93359375 35.046875 C11.83580233 33.36968692 11.1841729 30.40829267 10.0625 27.25 C9.81016602 26.57912354 9.55783203 25.90824707 9.29785156 25.21704102 C8.77650936 23.82881204 8.26142096 22.43821926 7.75244141 21.04541016 C6.62926099 17.99219618 5.43465855 14.96729044 4.25 11.9375 C2.72541568 7.98882661 1.31523182 4.02341372 0 0 Z " fill="#E77F76" transform="translate(287,375)"/>
<path d="M0 0 C0 0.66 0 1.32 0 2 C-0.9590625 2.1546875 -0.9590625 2.1546875 -1.9375 2.3125 C-2.618125 2.539375 -3.29875 2.76625 -4 3 C-4.33 3.99 -4.66 4.98 -5 6 C-7.31 6 -9.62 6 -12 6 C-12 6.99 -12 7.98 -12 9 C-17.94 9.495 -17.94 9.495 -24 10 C-24 10.66 -24 11.32 -24 12 C-25.7902061 12.67057887 -27.58221489 13.3363469 -29.375 14 C-30.37273437 14.37125 -31.37046875 14.7425 -32.3984375 15.125 C-35 16 -35 16 -37 16 C-37 16.66 -37 17.32 -37 18 C-41.74354436 20.22656164 -45.72250715 21.46148032 -51 22 C-51 23.65 -51 25.3 -51 27 C-51.66 26.34 -52.32 25.68 -53 25 C-53 23.68 -53 22.36 -53 21 C-45.09141938 16.89925449 -36.93871675 13.74098191 -28.625 10.5625 C-24.28210122 8.90002402 -19.97502289 7.17543521 -15.6875 5.375 C-2.88584385 0 -2.88584385 0 0 0 Z " fill="#E68176" transform="translate(395,178)"/>
<path d="M0 0 C0.33 0 0.66 0 1 0 C1 2.64 1 5.28 1 8 C0.34 8 -0.32 8 -1 8 C-1.21462891 8.87398437 -1.21462891 8.87398437 -1.43359375 9.765625 C-1.94159609 11.76960666 -2.49893027 13.76093036 -3.0625 15.75 C-4.12134092 19.92261757 -4.15327698 23.70824464 -4 28 C-3.34 27.34 -2.68 26.68 -2 26 C-1.67 27.98 -1.34 29.96 -1 32 C0.32 32.33 1.64 32.66 3 33 C0.44855176 33.93045933 -0.74006478 34.08564091 -3.359375 33.22265625 C-4.54273438 32.64837891 -4.54273438 32.64837891 -5.75 32.0625 C-6.54921875 31.68222656 -7.3484375 31.30195313 -8.171875 30.91015625 C-8.77515625 30.60980469 -9.3784375 30.30945313 -10 30 C-9.84540126 21.34247065 -6.3918268 14.47443156 -2.80517578 6.76757812 C-1.79122302 4.5416782 -0.88000317 2.28181727 0 0 Z " fill="#EB776B" transform="translate(290,121)"/>
<path d="M0 0 C3.50387753 1.25138483 5.26234055 3.10230866 7.625 5.9375 C7.625 6.9275 7.625 7.9175 7.625 8.9375 C5.6875 8.1875 5.6875 8.1875 3.625 6.9375 C2.875 4.8125 2.875 4.8125 2.625 2.9375 C-1.98336476 4.25417565 -5.60262713 5.95469354 -9.375 8.9375 C-10.10823796 10.95258358 -10.10823796 10.95258358 -10.375 12.9375 C-11.9375 14.6875 -11.9375 14.6875 -13.375 15.9375 C-13.045 16.9275 -12.715 17.9175 -12.375 18.9375 C-11.385 19.2675 -10.395 19.5975 -9.375 19.9375 C-9.045 21.9175 -8.715 23.8975 -8.375 25.9375 C-11.82781166 24.78656278 -12.75582163 23.6169007 -15.0625 20.875 C-15.68511719 20.14152344 -16.30773437 19.40804687 -16.94921875 18.65234375 C-17.41972656 18.08644531 -17.89023438 17.52054688 -18.375 16.9375 C-15.99246972 12.43716502 -13.10293097 9.34816025 -9.375 5.9375 C-8.715 5.9375 -8.055 5.9375 -7.375 5.9375 C-7.106875 5.31875 -6.83875 4.7 -6.5625 4.0625 C-4.91850377 1.12061202 -3.42543304 -0.09014297 0 0 Z " fill="#E7837B" transform="translate(141.375,124.0625)"/>
<path d="M0 0 C1.44907286 2.83739643 2.76749796 5.70505546 4.0234375 8.6328125 C4.405 9.52226562 4.7865625 10.41171875 5.1796875 11.328125 C5.57414062 12.25109375 5.96859375 13.1740625 6.375 14.125 C6.95507812 15.47464844 6.95507812 15.47464844 7.546875 16.8515625 C15.75322844 36.01807926 15.75322844 36.01807926 17 43 C16.34 43.66 15.68 44.32 15 45 C15 43.35 15 41.7 15 40 C13.515 40.495 13.515 40.495 12 41 C10.09647853 37.06605563 9.61958517 33.44766098 9.21875 29.16015625 C8.97290359 26.73242294 8.53729907 24.37946733 8 22 C7.34 22 6.68 22 6 22 C5.74476563 21.18208984 5.74476563 21.18208984 5.484375 20.34765625 C3.88457073 15.36954191 2.02156847 10.71681554 -0.328125 6.04296875 C-1.1241994 3.62234719 -0.83119315 2.37103175 0 0 Z " fill="#E37368" transform="translate(304,350)"/>
<path d="M0 0 C-1 3 -1 3 -4 5 C-5.54766142 5.5827119 -7.11192222 6.12264187 -8.6875 6.625 C-9.49574219 6.88539063 -10.30398437 7.14578125 -11.13671875 7.4140625 C-12.05904297 7.70410156 -12.05904297 7.70410156 -13 8 C-13.33 10.31 -13.66 12.62 -14 15 C-13.34 15 -12.68 15 -12 15 C-11.71125 16.0725 -11.4225 17.145 -11.125 18.25 C-10.17134117 21.81795 -10.17134117 21.81795 -8.875 24.25 C-8 26 -8 26 -8 29 C-7.01 29.33 -6.02 29.66 -5 30 C-6.32 30 -7.64 30 -9 30 C-12.8147198 22.64304038 -16.55486205 15.21830977 -18 7 C-16.08588443 6.01585567 -14.1686033 5.03786651 -12.25 4.0625 C-11.18265625 3.51722656 -10.1153125 2.97195313 -9.015625 2.41015625 C-5.90785451 0.95691124 -3.422728 0 0 0 Z " fill="#E78880" transform="translate(108,294)"/>
<path d="M0 0 C2.88463503 0.34399396 4.5704735 0.60425648 6.73828125 2.6015625 C7.51751953 3.60316406 7.51751953 3.60316406 8.3125 4.625 C11.39792338 8.40362423 14.72153007 11.47487273 18.49609375 14.5546875 C18.99238281 15.03164063 19.48867188 15.50859375 20 16 C20 16.66 20 17.32 20 18 C17 18 17 18 14.5625 15.875 C12 13 12 13 9.8125 9.6875 C9.214375 8.800625 8.61625 7.91375 8 7 C7.34 7 6.68 7 6 7 C6 6.34 6 5.68 6 5 C2.62563814 4.66619186 2.62563814 4.66619186 -1 5 C-2.84315671 6.9004467 -2.84315671 6.9004467 -4 9 C-4.66 9 -5.32 9 -6 9 C-6.226875 9.61875 -6.45375 10.2375 -6.6875 10.875 C-8.37929835 13.61410209 -9.99244161 14.05024472 -13 15 C-10.80149613 10.46558577 -7.65660778 7.78998257 -3.83984375 4.6484375 C-1.7808183 2.94156938 -1.7808183 2.94156938 0 0 Z " fill="#E68B85" transform="translate(330,315)"/>
<path d="M0 0 C1.2065625 0.0309375 1.2065625 0.0309375 2.4375 0.0625 C3.0975 2.3725 3.7575 4.6825 4.4375 7.0625 C3.4475 7.0625 2.4575 7.0625 1.4375 7.0625 C1.1075 5.7425 0.7775 4.4225 0.4375 3.0625 C-2.03516765 3.40694881 -2.03516765 3.40694881 -4.5625 4.0625 C-4.8925 4.7225 -5.2225 5.3825 -5.5625 6.0625 C-6.87578657 7.41558313 -8.20749081 8.75120078 -9.5625 10.0625 C-10.2225 9.7325 -10.8825 9.4025 -11.5625 9.0625 C-11.5625 8.4025 -11.5625 7.7425 -11.5625 7.0625 C-12.5525 7.0625 -13.5425 7.0625 -14.5625 7.0625 C-14.5625 7.7225 -14.5625 8.3825 -14.5625 9.0625 C-17.2025 9.0625 -19.8425 9.0625 -22.5625 9.0625 C-20.48269269 6.98269269 -19.40378899 6.50729113 -16.68359375 5.58984375 C-15.92755859 5.33009766 -15.17152344 5.07035156 -14.39257812 4.80273438 C-13.60302734 4.53783203 -12.81347656 4.27292969 -12 4 C-0.20673138 0.00504223 -0.20673138 0.00504223 0 0 Z " fill="#E77467" transform="translate(147.5625,277.9375)"/>
<path d="M0 0 C4.7374552 0.60308095 8.87191647 1.9782398 13.25 3.8125 C14.5702117 4.3557138 15.89052457 4.89868176 17.2109375 5.44140625 C17.85256836 5.70711426 18.49419922 5.97282227 19.15527344 6.24658203 C22.49201246 7.60936348 25.86889338 8.87146484 29.2421875 10.140625 C31 11 31 11 32 13 C26.30264659 11.90187066 21.32528785 10.3667946 16 8 C13.66989091 7.32215008 11.33640176 6.65583207 9 6 C6.31408935 5.04479938 3.65990957 4.02663176 1 3 C0.87625 3.598125 0.7525 4.19625 0.625 4.8125 C0 7 0 7 -2 10 C-2.66 10 -3.32 10 -4 10 C-2.8905928 6.51329166 -1.73662334 3.22515763 0 0 Z " fill="#EA8A82" transform="translate(99,176)"/>
<path d="M0 0 C4.12751449 0.60698743 7.3321148 2.03810791 11 4 C10.38696372 9.40508043 8.55619307 13.92439045 6.4375 18.875 C6.10814453 19.65875 5.77878906 20.4425 5.43945312 21.25 C4.63203214 23.16908756 3.81680231 25.0848865 3 27 C1.35 27 -0.3 27 -2 27 C-2.33 26.01 -2.66 25.02 -3 24 C-1.35 24 0.3 24 2 24 C2 22.35 2 20.7 2 19 C2.99 18.67 3.98 18.34 5 18 C5.12375 16.989375 5.2475 15.97875 5.375 14.9375 C5.98085335 11.12062388 6.87193912 7.68499888 8 4 C7.05125 3.855625 6.1025 3.71125 5.125 3.5625 C2 3 2 3 0 2 C0 1.34 0 0.68 0 0 Z " fill="#E4837A" transform="translate(147,195)"/>
<path d="M0 0 C0.99 0.33 1.98 0.66 3 1 C3 2.32 3 3.64 3 5 C3.99 4.67 4.98 4.34 6 4 C6.66 4.66 7.32 5.32 8 6 C7.34 6 6.68 6 6 6 C6.33 6.99 6.66 7.98 7 9 C7 10.32 7 11.64 7 13 C8.60495567 12.88557539 10.20898119 12.75805306 11.8125 12.625 C12.70582031 12.55539063 13.59914063 12.48578125 14.51953125 12.4140625 C17.24398499 12.13354964 17.24398499 12.13354964 20 10 C22.6875 9.875 22.6875 9.875 25 10 C22.11852174 12.33994754 19.39858364 13.79903432 15.9375 15.125 C14.65166016 15.62386719 14.65166016 15.62386719 13.33984375 16.1328125 C11.57174134 16.78810254 9.78886334 17.40371222 8 18 C4.77665117 15.36271459 3.74256708 12.28107369 2.3125 8.4375 C1.87550781 7.28121094 1.43851562 6.12492188 0.98828125 4.93359375 C0 2 0 2 0 0 Z " fill="#E5857E" transform="translate(344,205)"/>
<path d="M0 0 C1.875 0.1875 1.875 0.1875 4 1 C4.309375 1.804375 4.61875 2.60875 4.9375 3.4375 C5.77381806 6.24507417 5.77381806 6.24507417 8.625 7.3125 C9.800625 7.6528125 9.800625 7.6528125 11 8 C11 9.32 11 10.64 11 12 C12.65 12 14.3 12 16 12 C15.67 11.01 15.34 10.02 15 9 C18.01031744 8.06576355 18.86650268 7.95550089 22 9 C20.02 11.31 18.04 13.62 16 16 C11.79632134 15.51053057 10.12397867 14.5423506 7.5 11.25 C4.80473605 7.97086049 2.04573794 4.95344285 -1 2 C-0.67 1.34 -0.34 0.68 0 0 Z " fill="#ED7D7B" transform="translate(154,169)"/>
<path d="M0 0 C0 0.66 0 1.32 0 2 C0.71027344 2.19335938 1.42054688 2.38671875 2.15234375 2.5859375 C3.07144531 2.84632813 3.99054688 3.10671875 4.9375 3.375 C5.85402344 3.63023437 6.77054687 3.88546875 7.71484375 4.1484375 C10 5 10 5 11 7 C12.670625 7.7115625 12.670625 7.7115625 14.375 8.4375 C17.56016791 9.8104172 18.78692874 10.56290619 21 13 C14.08595267 11.18647939 7.58278627 8.69305619 1 5.9375 C0.15074951 5.58494141 -0.69850098 5.23238281 -1.57348633 4.86914062 C-2.37423584 4.52947266 -3.17498535 4.18980469 -4 3.83984375 C-4.721875 3.53425537 -5.44375 3.22866699 -6.1875 2.91381836 C-8 2 -8 2 -10 0 C-3.375 -1.125 -3.375 -1.125 0 0 Z " fill="#EA7F79" transform="translate(364,305)"/>
<path d="M0 0 C-1.32 0.33 -2.64 0.66 -4 1 C-3.06962906 8.12468273 -1.74480661 14.40428543 1.29296875 20.94140625 C2 23 2 23 1 26 C-1.07980731 23.92019269 -1.55520887 22.84128899 -2.47265625 20.12109375 C-2.73240234 19.36505859 -2.99214844 18.60902344 -3.25976562 17.83007812 C-3.52466797 17.04052734 -3.78957031 16.25097656 -4.0625 15.4375 C-5.40925787 10.33296419 -5.40925787 10.33296419 -8 6 C-8.04063832 4.33382885 -8.042721 2.66611905 -8 1 C-3.375 -1.125 -3.375 -1.125 0 0 Z " fill="#E7887D" transform="translate(286,349)"/>
<path d="M0 0 C0.91644287 0.00523682 1.83288574 0.01047363 2.77709961 0.01586914 C3.76645508 0.0190918 4.75581055 0.02231445 5.77514648 0.02563477 C6.81606445 0.03401367 7.85698242 0.04239258 8.92944336 0.05102539 C10.49662109 0.05779297 10.49662109 0.05779297 12.09545898 0.06469727 C14.6859779 0.07652612 17.27646758 0.0944622 19.86694336 0.11352539 C19.86694336 3.74352539 19.86694336 7.37352539 19.86694336 11.11352539 C19.53694336 11.11352539 19.20694336 11.11352539 18.86694336 11.11352539 C18.37194336 6.16352539 18.37194336 6.16352539 17.86694336 1.11352539 C9.45194336 1.60852539 9.45194336 1.60852539 0.86694336 2.11352539 C-0.19142325 5.28862521 -0.33549453 7.75634922 -0.44946289 11.09399414 C-0.49135742 12.25737305 -0.53325195 13.42075195 -0.57641602 14.61938477 C-0.61573242 15.83432617 -0.65504883 17.04926758 -0.69555664 18.30102539 C-0.73874023 19.52756836 -0.78192383 20.75411133 -0.82641602 22.01782227 C-0.93258754 25.0496092 -1.03463617 28.08147854 -1.13305664 31.11352539 C-1.46305664 31.11352539 -1.79305664 31.11352539 -2.13305664 31.11352539 C-2.30033101 26.85959772 -2.46092422 22.6054873 -2.61523438 18.35107422 C-2.66871901 16.90276238 -2.72405323 15.45451765 -2.78125 14.00634766 C-2.86298176 11.92893957 -2.93813432 9.85138369 -3.01196289 7.77368164 C-3.05909424 6.52208252 -3.10622559 5.2704834 -3.15478516 3.98095703 C-3.12587935 0.16636533 -3.12587935 0.16636533 0 0 Z " fill="#F2695D" transform="translate(241.133056640625,354.886474609375)"/>
<path d="M0 0 C0.99 0.99 1.98 1.98 3 3 C0.81508626 7.5063846 -2.30409006 10.18478039 -6.05859375 13.3515625 C-8.15392452 15.13069648 -10.09673417 17.01743143 -12 19 C-12.33 18.01 -12.66 17.02 -13 16 C-12.01 15.67 -11.02 15.34 -10 15 C-10 13.02 -10 11.04 -10 9 C-8.02 9 -6.04 9 -4 9 C-3.896875 8.071875 -3.79375 7.14375 -3.6875 6.1875 C-2.9929808 2.96745642 -2.52259061 1.97420135 0 0 Z " fill="#E87C73" transform="translate(374,137)"/>
<path d="M0 0 C3.9805565 2.16087353 7.01181101 4.58492687 10 8 C10 8.99 10 9.98 10 11 C9.34 11 8.68 11 8 11 C8 10.34 8 9.68 8 9 C7.01 9 6.02 9 5 9 C4.525625 8.175 4.05125 7.35 3.5625 6.5 C3.046875 5.675 2.53125 4.85 2 4 C0.68 4 -0.64 4 -2 4 C-2.33 5.32 -2.66 6.64 -3 8 C-3.639375 8.103125 -4.27875 8.20625 -4.9375 8.3125 C-5.618125 8.539375 -6.29875 8.76625 -7 9 C-7.33 9.99 -7.66 10.98 -8 12 C-11.0625 13.6875 -11.0625 13.6875 -14 15 C-12.92544498 11.77633495 -12.29693158 11.17361888 -9.75 9.125 C-6.64289307 6.56131712 -3.80585711 3.88838232 -1 1 C-0.67 0.67 -0.34 0.34 0 0 Z " fill="#E98A83" transform="translate(359,123)"/>
<path d="M0 0 C0.66 2.31 1.32 4.62 2 7 C1.01 6.67 0.02 6.34 -1 6 C-1 5.34 -1 4.68 -1 4 C-2.98 4.66 -4.96 5.32 -7 6 C-7 5.34 -7 4.68 -7 4 C-8.32 4 -9.64 4 -11 4 C-11 4.66 -11 5.32 -11 6 C-13.97 5.505 -13.97 5.505 -17 5 C-14.79458612 2.79458612 -13.05332499 2.0026552 -10.1875 0.8125 C-9.33542969 0.44769531 -8.48335938 0.08289063 -7.60546875 -0.29296875 C-4.66475703 -1.09097298 -2.9024918 -0.81811708 0 0 Z " fill="#EA7766" transform="translate(302,343)"/>
<path d="M0 0 C2.22695405 2.22695405 2.96032175 3.967618 4.125 6.875 C4.47820312 7.73867188 4.83140625 8.60234375 5.1953125 9.4921875 C6 12 6 12 6 16 C0.66068812 18.86034565 -4.07943568 20.73130765 -10 22 C-10 21.34 -10 20.68 -10 20 C-7.09399739 18.74335022 -5.20395416 18 -2 18 C-2 17.34 -2 16.68 -2 16 C-0.02 15.67 1.96 15.34 4 15 C3.67 13.68 3.34 12.36 3 11 C2.34 11 1.68 11 1 11 C0.63890458 9.35567294 0.28629924 7.7094792 -0.0625 6.0625 C-0.25972656 5.14597656 -0.45695313 4.22945313 -0.66015625 3.28515625 C-0.77230469 2.53105469 -0.88445312 1.77695312 -1 1 C-0.67 0.67 -0.34 0.34 0 0 Z " fill="#E48078" transform="translate(152,285)"/>
<path d="M0 0 C0.66 0.99 1.32 1.98 2 3 C1.67 3.99 1.34 4.98 1 6 C0.34 6 -0.32 6 -1 6 C-2.485 12.435 -2.485 12.435 -4 19 C-4.66 19 -5.32 19 -6 19 C-5.6596875 19.8971875 -5.6596875 19.8971875 -5.3125 20.8125 C-5 23 -5 23 -6.3125 24.75 C-8 26 -8 26 -10 26 C-9.32665703 23.03729095 -8.39403622 20.31320382 -7.25 17.5 C-6.899375 16.63632812 -6.54875 15.77265625 -6.1875 14.8828125 C-4.1411756 9.91509078 -2.07729043 4.95484849 0 0 Z " fill="#E67D76" transform="translate(188,362)"/>
<path d="M0 0 C2.43194894 2.43194894 3.33893831 4.71418779 4.6875 7.875 C5.14511719 8.92429688 5.60273438 9.97359375 6.07421875 11.0546875 C7.40796333 15.29790867 7.40796333 15.29790867 6 18 C4.0390625 19.30078125 4.0390625 19.30078125 1.625 20.3125 C0.83351563 20.65925781 0.04203125 21.00601563 -0.7734375 21.36328125 C-3 22 -3 22 -6 21 C-4.68 20.67 -3.36 20.34 -2 20 C-2 19.01 -2 18.02 -2 17 C-0.02 17 1.96 17 4 17 C3.67 15.02 3.34 13.04 3 11 C2.34 11 1.68 11 1 11 C0.67 7.37 0.34 3.74 0 0 Z " fill="#E28A89" transform="translate(403,182)"/>
<path d="M0 0 C3.98242235 2.16188642 7.0496862 4.54391812 10 8 C10 12 10 12 8.25 13.921875 C7.5075 14.52515625 6.765 15.1284375 6 15.75 C5.2575 16.36359375 4.515 16.9771875 3.75 17.609375 C3.1725 18.06828125 2.595 18.5271875 2 19 C1.67 18.01 1.34 17.02 1 16 C1.33 15.34 1.66 14.68 2 14 C2.99 14 3.98 14 5 14 C4.58012554 8.6466006 3.54426058 6.00158453 0 2 C0 1.34 0 0.68 0 0 Z " fill="#E8857B" transform="translate(175,158)"/>
<path d="M0 0 C5 7.5 5 7.5 5 11 C5.66 11 6.32 11 7 11 C7.66666667 13.66666667 8.33333333 16.33333333 9 19 C9.22816406 19.70640625 9.45632812 20.4128125 9.69140625 21.140625 C9.79324219 21.75421875 9.89507812 22.3678125 10 23 C9.34 23.66 8.68 24.32 8 25 C6.86684609 22.5034256 5.74343421 20.00316228 4.625 17.5 C4.30789062 16.80390625 3.99078125 16.1078125 3.6640625 15.390625 C1.5592316 10.65475548 0.02446483 6.0885506 -1 1 C-0.67 0.67 -0.34 0.34 0 0 Z " fill="#EA8179" transform="translate(184,117)"/>
<path d="M0 0 C0.33 0.99 0.66 1.98 1 3 C-0.62339805 4.70884005 -2.29319053 6.37446717 -4 8 C-4.66 8 -5.32 8 -6 8 C-6 8.66 -6 9.32 -6 10 C-6.845625 10.78375 -7.69125 11.5675 -8.5625 12.375 C-9.366875 13.24125 -10.17125 14.1075 -11 15 C-10.95502158 17.27523089 -10.95502158 17.27523089 -10 19 C-10.99 19 -11.98 19 -13 19 C-13.66 17.68 -14.32 16.36 -15 15 C-10 10 -5 5 0 0 Z " fill="#E4867F" transform="translate(138,344)"/>
<path d="M0 0 C5.59224607 1.39806152 10.74203144 3.50408066 16.04296875 5.7578125 C19.66109314 7.27771152 23.31442232 8.65334662 27 10 C27 10.33 27 10.66 27 11 C23.63333914 11.23488332 21.59443501 11.36083597 18.6640625 9.58203125 C15.77197982 7.86459212 13.3388199 7.20839349 10.0625 6.5 C5.61723157 5.46404965 1.93396661 4.29481386 -2 2 C-1.34 1.34 -0.68 0.68 0 0 Z " fill="#E48A83" transform="translate(373,286)"/>
<path d="M0 0 C3.0625 1.1875 3.0625 1.1875 6.0625 3.1875 C5.59661505 8.89459064 4.12492216 12.34689723 1.0625 17.1875 C0.4025 17.1875 -0.2575 17.1875 -0.9375 17.1875 C-0.9375 16.1975 -0.9375 15.2075 -0.9375 14.1875 C-0.2775 13.8575 0.3825 13.5275 1.0625 13.1875 C1.75181344 10.83842125 1.75181344 10.83842125 2.1875 8.125 C2.35507813 7.20589844 2.52265625 6.28679687 2.6953125 5.33984375 C2.81648437 4.62957031 2.93765625 3.91929687 3.0625 3.1875 C2.299375 3.06375 1.53625 2.94 0.75 2.8125 C-1.9375 2.1875 -1.9375 2.1875 -4.9375 0.1875 C-2.9375 -0.8125 -2.9375 -0.8125 0 0 Z " fill="#E07569" transform="translate(213.9375,346.8125)"/>
<path d="M0 0 C1.65 0.99 3.3 1.98 5 3 C4.58565093 7.83407252 2.62206046 9.89537674 -1 13 C-1.99 13.33 -2.98 13.66 -4 14 C-3.625 11.5625 -3.625 11.5625 -3 9 C-2.34 8.67 -1.68 8.34 -1 8 C-1 6.68 -1 5.36 -1 4 C-0.34 4 0.32 4 1 4 C0.67 2.68 0.34 1.36 0 0 Z " fill="#E88173" transform="translate(180,327)"/>
<path d="M0 0 C0.33 0 0.66 0 1 0 C1.33 2.64 1.66 5.28 2 8 C2.99 8.33 3.98 8.66 5 9 C5 9.66 5 10.32 5 11 C7.97 11.495 7.97 11.495 11 12 C11.33 12.99 11.66 13.98 12 15 C6.76727367 13.36041242 1.84803364 11.61047965 -3 9 C-2.44271087 5.65626525 -1.64826111 2.96687001 0 0 Z " fill="#E68780" transform="translate(93,190)"/>
<path d="M0 0 C0 0.66 0 1.32 0 2 C-0.639375 2.103125 -1.27875 2.20625 -1.9375 2.3125 C-2.618125 2.539375 -3.29875 2.76625 -4 3 C-4.33 3.99 -4.66 4.98 -5 6 C-7.31 6 -9.62 6 -12 6 C-12 6.99 -12 7.98 -12 9 C-16.455 9.495 -16.455 9.495 -21 10 C-20 7 -20 7 -17.99609375 5.9375 C-17.15175781 5.628125 -16.30742187 5.31875 -15.4375 5 C-14.53902344 4.66484375 -13.64054687 4.3296875 -12.71484375 3.984375 C-11.37099609 3.49710938 -11.37099609 3.49710938 -10 3 C-8.49995363 2.41678592 -6.99994834 1.83346614 -5.5 1.25 C-2 0 -2 0 0 0 Z " fill="#E77E74" transform="translate(395,178)"/>
<path d="M0 0 C0.99 0 1.98 0 3 0 C1.06375702 6.20477864 -1.25609141 12.10825719 -4 18 C-9.75 17.25 -9.75 17.25 -12 15 C-11.236875 15.020625 -10.47375 15.04125 -9.6875 15.0625 C-6.89814214 15.12942841 -6.89814214 15.12942841 -4 14 C-4 12.35 -4 10.7 -4 9 C-3.34 9 -2.68 9 -2 9 C-1.855625 8.071875 -1.71125 7.14375 -1.5625 6.1875 C-1 3 -1 3 0 0 Z " fill="#E68681" transform="translate(307,141)"/>
<path d="M0 0 C2.01913623 2.01913623 2.63545044 3.19868979 3.625 5.8125 C3.88539063 6.47894531 4.14578125 7.14539063 4.4140625 7.83203125 C5.07993114 10.2957452 5.09755422 12.45915603 5 15 C3.21046815 15.83790789 1.41830305 16.67019396 -0.375 17.5 C-1.37273437 17.9640625 -2.37046875 18.428125 -3.3984375 18.90625 C-6 20 -6 20 -8 20 C-7 17 -7 17 -5.15234375 16.05078125 C-4.42144531 15.80714844 -3.69054687 15.56351563 -2.9375 15.3125 C-1.83728516 14.93544922 -1.83728516 14.93544922 -0.71484375 14.55078125 C-0.14894531 14.36902344 0.41695312 14.18726563 1 14 C1.20970559 9.85906302 1.20970559 9.85906302 0 6 C-0.039992 4.00039988 -0.04346799 1.99952758 0 0 Z " fill="#E59083" transform="translate(217,135)"/>
<path d="M0 0 C2.86825757 2.45496397 4.00185451 4.92497007 5.3125 8.4375 C5.67988281 9.38496094 6.04726563 10.33242188 6.42578125 11.30859375 C7 14 7 14 6.10546875 16.34765625 C5.55826172 17.16556641 5.55826172 17.16556641 5 18 C5 16.35 5 14.7 5 13 C4.01 13.33 3.02 13.66 2 14 C-0.3992233 9.35150485 -0.19957409 5.08913926 0 0 Z " fill="#EC695C" transform="translate(314,377)"/>
<path d="M0 0 C2.31 0.33 4.62 0.66 7 1 C7.165 1.928125 7.33 2.85625 7.5 3.8125 C9.1842647 7.39156248 9.6106519 7.58971722 13.125 8.875 C14.40982976 9.27279427 15.69991255 9.65532565 17 10 C17 11.98 17 13.96 17 16 C12.46558577 13.80149613 9.78998257 10.65660778 6.6484375 6.83984375 C4.94156938 4.7808183 4.94156938 4.7808183 2 3 C2 2.34 2 1.68 2 1 C1.34 0.67 0.68 0.34 0 0 Z " fill="#EE7E76" transform="translate(318,336)"/>
<path d="M0 0 C3.50387753 1.25138483 5.26234055 3.10230866 7.625 5.9375 C7.625 6.9275 7.625 7.9175 7.625 8.9375 C5.6875 8.1875 5.6875 8.1875 3.625 6.9375 C2.875 4.8125 2.875 4.8125 2.625 2.9375 C-2.63670694 4.34917747 -6.09671358 6.68600232 -10.375 9.9375 C-11.035 9.6075 -11.695 9.2775 -12.375 8.9375 C-11 7.4375 -11 7.4375 -9.375 5.9375 C-8.715 5.9375 -8.055 5.9375 -7.375 5.9375 C-7.106875 5.31875 -6.83875 4.7 -6.5625 4.0625 C-4.91850377 1.12061202 -3.42543304 -0.09014297 0 0 Z " fill="#E78681" transform="translate(141.375,124.0625)"/>
<path d="M0 0 C4 0 4 0 6.75 2.375 C9 5 9 5 9 7 C8.401875 6.773125 7.80375 6.54625 7.1875 6.3125 C6.1046875 6.1578125 6.1046875 6.1578125 5 6 C3.22809091 7.35444301 3.22809091 7.35444301 2 9 C1.34 8.01 0.68 7.02 0 6 C-0.99 5.34 -1.98 4.68 -3 4 C-1.75 2 -1.75 2 0 0 Z " fill="#F27564" transform="translate(166,315)"/>
<path d="M0 0 C0.66 0.33 1.32 0.66 2 1 C1.4375 2.875 1.4375 2.875 0 5 C-4.57180875 6.70322287 -9.17019236 7.40859498 -14 8 C-14.33 7.34 -14.66 6.68 -15 6 C-12.54524486 4.96971956 -10.08685649 3.95054496 -7.625 2.9375 C-6.57699219 2.49567383 -6.57699219 2.49567383 -5.5078125 2.04492188 C-3.69495092 1.30408902 -1.84876857 0.64603036 0 0 Z " fill="#EB8176" transform="translate(123,287)"/>
<path d="M0 0 C4.24897103 -0.29625853 7.07003612 0.65280888 10.9375 2.375 C14.91382928 4.12971563 18.85761908 5.67888299 23 7 C23 7.33 23 7.66 23 8 C15.16008251 7.52960495 8.27928865 4.77062812 1 2 C0.67 3.65 0.34 5.3 0 7 C-0.66 7 -1.32 7 -2 7 C-1.34 4.69 -0.68 2.38 0 0 Z " fill="#E1877A" transform="translate(350,278)"/>
<path d="M0 0 C-3.67808884 2.45205923 -7.49058645 4.0012885 -11.5625 5.6875 C-12.34302734 6.02072266 -13.12355469 6.35394531 -13.92773438 6.69726562 C-14.67474609 7.00728516 -15.42175781 7.31730469 -16.19140625 7.63671875 C-16.87404541 7.92248779 -17.55668457 8.20825684 -18.26000977 8.50268555 C-20 9 -20 9 -22 8 C-20.7934375 7.319375 -20.7934375 7.319375 -19.5625 6.625 C-16.91143428 5.25274335 -16.91143428 5.25274335 -16 3 C-14 2.66666667 -12 2.33333333 -10 2 C-9.67 1.34 -9.34 0.68 -9 0 C-5.65506316 -0.99444068 -3.31044803 -1.10348268 0 0 Z " fill="#E88578" transform="translate(397,204)"/>
<path d="M0 0 C4.62 0 9.24 0 14 0 C14 1.65 14 3.3 14 5 C14.99 4.67 15.98 4.34 17 4 C16.67 4.99 16.34 5.98 16 7 C10.55123997 5.27933894 5.28830549 3.15294651 0 1 C0 0.67 0 0.34 0 0 Z " fill="#E97A6A" transform="translate(180,402)"/>
<path d="M0 0 C10.08499096 8.14556962 10.08499096 8.14556962 13 13 C12.67 13.99 12.34 14.98 12 16 C11.6596875 15.54109375 11.319375 15.0821875 10.96875 14.609375 C7.13995611 9.76228486 3.66557161 7.44205673 -2 5 C-2 4.34 -2 3.68 -2 3 C-1.34 3 -0.68 3 0 3 C0 2.01 0 1.02 0 0 Z " fill="#E4837C" transform="translate(363,345)"/>
<path d="M0 0 C0 0.99 0 1.98 0 3 C-0.99 3.33 -1.98 3.66 -3 4 C-3 5.32 -3 6.64 -3 8 C-3.99 8 -4.98 8 -6 8 C-4.6446674 10.53673288 -4.6446674 10.53673288 -3 13 C-2.34 13 -1.68 13 -1 13 C-1.33 14.32 -1.66 15.64 -2 17 C-4 17 -4 17 -6.6875 14.8125 C-9 12 -9 12 -8.8984375 9.5625 C-7.80587386 6.4463185 -6.48671543 5.25115059 -3.9375 3.1875 C-3.20402344 2.58292969 -2.47054688 1.97835937 -1.71484375 1.35546875 C-1.14894531 0.90816406 -0.58304687 0.46085938 0 0 Z " fill="#E48880" transform="translate(324,158)"/>
<path d="M0 0 C2.77911574 1.34745006 3.34058049 3.20935999 4.40234375 6.01171875 C5.39013014 8.98676769 6.25853378 11.96966577 7.0625 15 C4.0625 14 4.0625 14 2.375 10.6875 C1.0625 7 1.0625 7 1.0625 3 C-3.3925 3.495 -3.3925 3.495 -7.9375 4 C-2.7201087 0 -2.7201087 0 0 0 Z " fill="#E68B7E" transform="translate(197.9375,90)"/>
<path d="M0 0 C2.97 0.495 2.97 0.495 6 1 C6 1.33 6 1.66 6 2 C4.35 2.33 2.7 2.66 1 3 C1.12375 4.6396875 1.12375 4.6396875 1.25 6.3125 C1.1675 7.529375 1.085 8.74625 1 10 C-0.875 11.625 -0.875 11.625 -3 13 C-4.26847685 15.58498512 -4.26847685 15.58498512 -5 18 C-5.66 18 -6.32 18 -7 18 C-5.06375702 11.79522136 -2.74390859 5.89174281 0 0 Z " fill="#E88A81" transform="translate(197,341)"/>
<path d="M0 0 C5.44876003 1.72066106 10.71169451 3.84705349 16 6 C14.02 6.99 14.02 6.99 12 8 C11.67 7.34 11.34 6.68 11 6 C8.41394668 5.5316735 8.41394668 5.5316735 5.4375 5.375 C4.42558594 5.30023438 3.41367187 5.22546875 2.37109375 5.1484375 C1.19740234 5.07496094 1.19740234 5.07496094 0 5 C-0.33 5.66 -0.66 6.32 -1 7 C-1.66 7 -2.32 7 -3 7 C-1.125 1.125 -1.125 1.125 0 0 Z " fill="#E6837B" transform="translate(304,91)"/>
<path d="M0 0 C0.66 0 1.32 0 2 0 C2.33 0.99 2.66 1.98 3 3 C-0.80411834 6.91939465 -4.81576108 10.49102731 -9 14 C-9 11 -9 11 -8 8 C-7.01 8 -6.02 8 -5 8 C-4.34 6.68 -3.68 5.36 -3 4 C-2.34 4 -1.68 4 -1 4 C-0.67 2.68 -0.34 1.36 0 0 Z " fill="#E78076" transform="translate(357,156)"/>
<path d="M0 0 C0.99 0.33 1.98 0.66 3 1 C2.67 2.32 2.34 3.64 2 5 C3.65 5.33 5.3 5.66 7 6 C7 10.29 7 14.58 7 19 C4.92782515 15.89173772 3.71574645 12.98123641 2.375 9.5 C1.92898437 8.3553125 1.48296875 7.210625 1.0234375 6.03125 C0 3 0 3 0 0 Z " fill="#EB887F" transform="translate(176,99)"/>
<path d="M0 0 C1.48484412 0.39595843 2.9628831 0.81750706 4.4375 1.25 C5.26121094 1.48203125 6.08492188 1.7140625 6.93359375 1.953125 C9 3 9 3 9.90625 4.8125 C10.02599956 7.60665638 9.27872446 9.24384051 8.0625 11.75 C7.68222656 12.54921875 7.30195313 13.3484375 6.91015625 14.171875 C6.60980469 14.77515625 6.30945313 15.3784375 6 16 C5.67 16 5.34 16 5 16 C5 14.02 5 12.04 5 10 C5.66 10 6.32 10 7 10 C6.34 8.02 5.68 6.04 5 4 C3.35 3.67 1.7 3.34 0 3 C0 2.01 0 1.02 0 0 Z " fill="#E18B81" transform="translate(400,297)"/>
<path d="M0 0 C3.375 -0.125 3.375 -0.125 7 0 C7.66 0.66 8.32 1.32 9 2 C10.52056618 2.59834554 12.06612088 3.13506656 13.625 3.625 C14.85089844 4.01558594 14.85089844 4.01558594 16.1015625 4.4140625 C16.72804688 4.60742188 17.35453125 4.80078125 18 5 C18 5.99 18 6.98 18 8 C13.78224268 6.64474464 9.70578678 5.09799886 5.625 3.375 C4.56539063 2.92898437 3.50578125 2.48296875 2.4140625 2.0234375 C1.61742188 1.68570313 0.82078125 1.34796875 0 1 C0 0.67 0 0.34 0 0 Z " fill="#E68173" transform="translate(111,207)"/>
<path d="M0 0 C0.99 0.33 1.98 0.66 3 1 C1.21427748 2.83947337 -0.57802449 4.67157741 -2.375 6.5 C-2.88289062 7.02464844 -3.39078125 7.54929687 -3.9140625 8.08984375 C-5.23832604 9.43153181 -6.61605865 10.71995815 -8 12 C-8.66 12 -9.32 12 -10 12 C-9.49396008 9.83125748 -9.00016187 8.00032373 -8 6 C-6.33720673 4.9935725 -4.67016516 3.99414593 -3 3 C-1.24850835 1.41754725 -1.24850835 1.41754725 0 0 Z " fill="#E38179" transform="translate(157,358)"/>
<path d="M0 0 C0.99 0.33 1.98 0.66 3 1 C1.50260417 2.20442708 0.00520833 3.40885417 -1.4921875 4.61328125 C-3.25292107 6.12270545 -3.25292107 6.12270545 -5 9 C-7.88575819 8.60196439 -8.82189513 8.20990931 -10.75 5.9375 C-11.1625 5.298125 -11.575 4.65875 -12 4 C-11.34 4 -10.68 4 -10 4 C-9.67 3.34 -9.34 2.68 -9 2 C-9 3.32 -9 4.64 -9 6 C-7.68 6 -6.36 6 -5 6 C-4.67 4.68 -4.34 3.36 -4 2 C-3.01 2.33 -2.02 2.66 -1 3 C-0.67 2.01 -0.34 1.02 0 0 Z " fill="#E8917D" transform="translate(339,176)"/>
<path d="M0 0 C2 1 2 1 2.6328125 2.84765625 C2.79523438 3.57855469 2.95765625 4.30945313 3.125 5.0625 C3.29257813 5.79597656 3.46015625 6.52945313 3.6328125 7.28515625 C3.75398437 7.85105469 3.87515625 8.41695312 4 9 C5.98 8.67 7.96 8.34 10 8 C10.33 8.66 10.66 9.32 11 10 C8.67983543 11.46084436 7.20122699 11.99509202 4.4375 12.0625 C2 11 2 11 0.125 7.6875 C-1.31119199 2.9799818 -1.31119199 2.9799818 0 0 Z " fill="#E68A7E" transform="translate(196,146)"/>
<path d="M0 0 C0.66 0 1.32 0 2 0 C1.34496718 4.05819183 0.05440879 7.53971282 -1.5625 11.3125 C-2.01753906 12.38113281 -2.47257813 13.44976562 -2.94140625 14.55078125 C-3.46541016 15.76314453 -3.46541016 15.76314453 -4 17 C-4.33 17 -4.66 17 -5 17 C-5.41628689 10.20064747 -3.75173625 5.62760438 0 0 Z " fill="#E5857C" transform="translate(213,364)"/>
<path d="M0 0 C1.32 0.33 2.64 0.66 4 1 C2 6 0 11 -2 16 C-3.58272601 12.83454798 -2.33086619 10.25581122 -1.5625 6.875 C-1.27503906 5.59367187 -0.98757812 4.31234375 -0.69140625 2.9921875 C-0.46324219 2.00476563 -0.23507813 1.01734375 0 0 Z " fill="#E98073" transform="translate(200,390)"/>
<path d="M0 0 C0.99 0 1.98 0 3 0 C2.01 2.97 1.02 5.94 0 9 C-2.25 9.6875 -2.25 9.6875 -5 10 C-7.3125 8.5625 -7.3125 8.5625 -9 7 C-6.36 7 -3.72 7 -1 7 C-0.67 4.69 -0.34 2.38 0 0 Z " fill="#E9897E" transform="translate(402,314)"/>
<path d="M0 0 C1.4540625 0.0309375 1.4540625 0.0309375 2.9375 0.0625 C1.67039132 3.86382605 0.02367938 5.53744414 -3.0625 8.0625 C-5.875 7.875 -5.875 7.875 -8.0625 7.0625 C-8.0625 6.4025 -8.0625 5.7425 -8.0625 5.0625 C-6.4125 5.0625 -4.7625 5.0625 -3.0625 5.0625 C-3.3409375 4.1034375 -3.3409375 4.1034375 -3.625 3.125 C-3.769375 2.444375 -3.91375 1.76375 -4.0625 1.0625 C-3.0625 0.0625 -3.0625 0.0625 0 0 Z " fill="#EA867B" transform="translate(173.0625,176.9375)"/>
<path d="M0 0 C0.33 1.32 0.66 2.64 1 4 C0.34 4 -0.32 4 -1 4 C-0.81870185 7.43793339 -0.81870185 7.43793339 0 11 C1.93597032 12.51294288 1.93597032 12.51294288 4 13 C2.1875 13.625 2.1875 13.625 0 14 C-0.99 13.34 -1.98 12.68 -3 12 C-2.88541307 10.56163249 -2.75790884 9.12429034 -2.625 7.6875 C-2.55539063 6.88699219 -2.48578125 6.08648437 -2.4140625 5.26171875 C-2 3 -2 3 0 0 Z " fill="#E48A7F" transform="translate(177,388)"/>
<path d="M0 0 C2.97 0.99 5.94 1.98 9 3 C9 2.01 9 1.02 9 0 C9.99 0.33 10.98 0.66 12 1 C11.3125 2.9375 11.3125 2.9375 10 5 C7.6875 6.0625 7.6875 6.0625 5 6 C2.1875 3.625 2.1875 3.625 0 1 C0 0.67 0 0.34 0 0 Z " fill="#EA8078" transform="translate(353,370)"/>
<path d="M0 0 C3.68007532 0.18098731 6.40147147 0.85636692 9.8125 2.1875 C9.8125 2.5175 9.8125 2.8475 9.8125 3.1875 C9.11382812 3.17589844 8.41515625 3.16429687 7.6953125 3.15234375 C6.78523437 3.14332031 5.87515625 3.13429688 4.9375 3.125 C4.03257812 3.11339844 3.12765625 3.10179687 2.1953125 3.08984375 C-0.2043585 3.02500743 -0.2043585 3.02500743 -2.1875 4.1875 C-2.8475 5.1775 -3.5075 6.1675 -4.1875 7.1875 C-4.23004356 5.18795254 -4.22830783 3.18708364 -4.1875 1.1875 C-3.1875 0.1875 -3.1875 0.1875 0 0 Z " fill="#E87166" transform="translate(201.1875,342.8125)"/>
<path d="M0 0 C1.38111872 3.7211033 0.58663681 5.92869944 -0.8125 9.5625 C-1.16957031 10.51253906 -1.52664063 11.46257812 -1.89453125 12.44140625 C-3 15 -3 15 -5 18 C-5.66 18 -6.32 18 -7 18 C-5.64474464 13.78224268 -4.09799886 9.70578678 -2.375 5.625 C-1.92898438 4.56539063 -1.48296875 3.50578125 -1.0234375 2.4140625 C-0.68570312 1.61742188 -0.34796875 0.82078125 0 0 Z " fill="#E98B7E" transform="translate(298,103)"/>
<path d="M0 0 C0.33 0.66 0.66 1.32 1 2 C-0.375 4 -0.375 4 -2 6 C-2.66 6 -3.32 6 -4 6 C-4.226875 6.61875 -4.45375 7.2375 -4.6875 7.875 C-6.37929835 10.61410209 -7.99244161 11.05024472 -11 12 C-8.47295673 6.78797325 -4.38226641 3.6119868 0 0 Z " fill="#E5887B" transform="translate(344,138)"/>
<path d="M0 0 C0 3.52032428 -0.70351351 4.4385343 -3 7 C-3.66 7 -4.32 7 -5 7 C-5.226875 7.61875 -5.45375 8.2375 -5.6875 8.875 C-7.37929835 11.61410209 -8.99244161 12.05024472 -12 13 C-9.46647805 7.77461098 -5.36752912 4.64287183 -1 1 C-0.67 0.67 -0.34 0.34 0 0 Z " fill="#EB8E82" transform="translate(329,317)"/>
<path d="M0 0 C0.66 0 1.32 0 2 0 C2 0.66 2 1.32 2 2 C2.99 2 3.98 2 5 2 C5 1.34 5 0.68 5 0 C5.99 0.33 6.98 0.66 8 1 C3.25 5.875 3.25 5.875 1 7 C0.01 6.01 -0.98 5.02 -2 4 C-1.01 4 -0.02 4 1 4 C0.67 2.68 0.34 1.36 0 0 Z " fill="#E67F74" transform="translate(139,370)"/>
<path d="M0 0 C5.08869684 2.16360269 8.64123566 3.69278023 11 9 C10.34 9.66 9.68 10.32 9 11 C8.60167969 10.51789063 8.20335937 10.03578125 7.79296875 9.5390625 C7.26316406 8.90742188 6.73335938 8.27578125 6.1875 7.625 C5.66542969 6.99851562 5.14335937 6.37203125 4.60546875 5.7265625 C2.91774261 3.7778952 2.91774261 3.7778952 0 2 C0 1.34 0 0.68 0 0 Z " fill="#EC837C" transform="translate(335,352)"/>
<path d="M0 0 C-1.32 0.33 -2.64 0.66 -4 1 C-4 1.66 -4 2.32 -4 3 C-8.62197306 5.21854707 -11.76824163 6.38281159 -17 6 C-13.96503913 3.49723606 -11.06804717 2.08387688 -7.375 0.75 C-6.41335938 0.39421875 -5.45171875 0.0384375 -4.4609375 -0.328125 C-2 -1 -2 -1 0 0 Z " fill="#EA9790" transform="translate(375,187)"/>
<path d="M0 0 C2.25597827 2.25597827 2.96574192 4.04603867 4.125 7 C4.47820312 7.886875 4.83140625 8.77375 5.1953125 9.6875 C6 12 6 12 6 14 C5.01 14 4.02 14 3 14 C3 13.01 3 12.02 3 11 C2.34 11 1.68 11 1 11 C0.67 7.37 0.34 3.74 0 0 Z " fill="#E88077" transform="translate(403,182)"/>
<path d="M0 0 C0.33 0 0.66 0 1 0 C1 2.64 1 5.28 1 8 C0.34 8 -0.32 8 -1 8 C-1.12375 8.598125 -1.2475 9.19625 -1.375 9.8125 C-2 12 -2 12 -4 15 C-5 12 -5 12 -4.2578125 10.09765625 C-3.69707031 9.09025391 -3.69707031 9.09025391 -3.125 8.0625 C-1.64629663 5.37911872 -0.63192936 3.00502577 0 0 Z " fill="#E68E86" transform="translate(290,121)"/>
<path d="M0 0 C0.33 0.99 0.66 1.98 1 3 C-1.44172459 6.25563278 -4.04449934 9.20005201 -7 12 C-7 10.68 -7 9.36 -7 8 C-6.34 8 -5.68 8 -5 8 C-4.731875 7.05125 -4.46375 6.1025 -4.1875 5.125 C-3 2 -3 2 0 0 Z " fill="#ED6A57" transform="translate(197,351)"/>
<path d="M0 0 C-1 2 -1 2 -4 4 C-4.99 4 -5.98 4 -7 4 C-7 4.66 -7 5.32 -7 6 C-9.64 6 -12.28 6 -15 6 C-12.75848118 3.75848118 -10.9932888 3.03698675 -8.0625 1.875 C-7.18722656 1.52179688 -6.31195313 1.16859375 -5.41015625 0.8046875 C-3 0 -3 0 0 0 Z " fill="#EA9587" transform="translate(140,281)"/>
<path d="M0 0 C5.6143991 1.56448671 10.86810338 3.16395187 16 6 C14 7 14 7 12.01171875 6.51171875 C11.24472656 6.23972656 10.47773437 5.96773437 9.6875 5.6875 C8.88828125 5.40648437 8.0890625 5.12546875 7.265625 4.8359375 C4.82425219 3.93515512 2.39993453 3.00642416 0 2 C0 1.34 0 0.68 0 0 Z " fill="#E79188" transform="translate(115,182)"/>
<path d="M0 0 C1.18655324 3.55965971 0.7782716 4.15393095 -0.75 7.4375 C-1.09546875 8.19933594 -1.4409375 8.96117188 -1.796875 9.74609375 C-3.01234507 12.02312697 -4.39875969 13.98004455 -6 16 C-5.71572583 14.41532272 -5.42225182 12.8322943 -5.125 11.25 C-4.96257812 10.36828125 -4.80015625 9.4865625 -4.6328125 8.578125 C-4.03203736 6.13052256 -3.22002883 4.19400143 -2 2 C-1.34 2 -0.68 2 0 2 C0 1.34 0 0.68 0 0 Z " fill="#E8948E" transform="translate(322,110)"/>
<path d="M0 0 C1.13199353 0.9080162 2.25532363 1.82683826 3.375 2.75 C4.00148438 3.26046875 4.62796875 3.7709375 5.2734375 4.296875 C7.08312318 6.08199481 8.00117455 7.67949644 9 10 C8.01 10 7.02 10 6 10 C6 9.34 6 8.68 6 8 C5.195625 7.79375 4.39125 7.5875 3.5625 7.375 C2.2940625 6.694375 2.2940625 6.694375 1 6 C0.1875 2.875 0.1875 2.875 0 0 Z " fill="#E9857C" transform="translate(353,335)"/>
<path d="M0 0 C2.3125 0.1875 2.3125 0.1875 5 1 C6.8125 3.5625 6.8125 3.5625 8 6 C7.01 6.495 7.01 6.495 6 7 C6 6.34 6 5.68 6 5 C3.03 4.505 3.03 4.505 0 4 C0 2.68 0 1.36 0 0 Z " fill="#E87C75" transform="translate(330,315)"/>
<path d="M0 0 C0.99 0.495 0.99 0.495 2 1 C2.33 1.99 2.66 2.98 3 4 C3.99 4.33 4.98 4.66 6 5 C6.33 6.98 6.66 8.96 7 11 C2.94089532 9.64696511 2.0786931 7.65563269 0 4 C0 2.68 0 1.36 0 0 Z " fill="#F17571" transform="translate(126,139)"/>
<path d="M0 0 C6.2049038 0.2757735 10.10160999 1.10640794 15 5 C13 6 13 6 9.9609375 5.00390625 C8.77757812 4.52824219 7.59421875 4.05257813 6.375 3.5625 C5.18648438 3.08941406 3.99796875 2.61632812 2.7734375 2.12890625 C1.85820312 1.75636719 0.94296875 1.38382812 0 1 C0 0.67 0 0.34 0 0 Z " fill="#E69189" transform="translate(370,312)"/>
<path d="M0 0 C0.33 0.99 0.66 1.98 1 3 C-2.91176471 8.58823529 -2.91176471 8.58823529 -6.3125 9.875 C-6.869375 9.91625 -7.42625 9.9575 -8 10 C-6.71480435 7.13302508 -5.42870746 5.02392288 -3 3 C-2.34 3 -1.68 3 -1 3 C-0.67 2.01 -0.34 1.02 0 0 Z " fill="#E48B84" transform="translate(161,320)"/>
<path d="M0 0 C2.3129482 2.3129482 2.49580975 3.47904875 3.125 6.625 C3.29257813 7.44226563 3.46015625 8.25953125 3.6328125 9.1015625 C3.81457031 10.04128906 3.81457031 10.04128906 4 11 C3.01 11 2.02 11 1 11 C0.63890458 9.35567294 0.28629924 7.7094792 -0.0625 6.0625 C-0.25972656 5.14597656 -0.45695313 4.22945313 -0.66015625 3.28515625 C-0.77230469 2.53105469 -0.88445312 1.77695312 -1 1 C-0.67 0.67 -0.34 0.34 0 0 Z " fill="#E2736A" transform="translate(152,285)"/>
<path d="M0 0 C3.81684226 1.55500981 6.19195732 4.03595495 9 7 C8.67 7.66 8.34 8.32 8 9 C7.34 9 6.68 9 6 9 C6 8.34 6 7.68 6 7 C5.01 7 4.02 7 3 7 C0 2.77777778 0 2.77777778 0 0 Z " fill="#E6786F" transform="translate(361,125)"/>
<path d="M0 0 C3.34093309 3.6591172 4.92975789 8.22081542 6 13 C5.67 13.66 5.34 14.32 5 15 C2.18467181 9.95859836 0.4811491 5.77378925 0 0 Z " fill="#E58A7F" transform="translate(205,106)"/>
<path d="M0 0 C1.98 0.66 3.96 1.32 6 2 C5.25 9.75 5.25 9.75 3 12 C3.09765625 9.98177083 3.1953125 7.96354167 3.29296875 5.9453125 C3.19628906 5.30335937 3.09960938 4.66140625 3 4 C2.01 3.34 1.02 2.68 0 2 C0 1.34 0 0.68 0 0 Z " fill="#DE7D78" transform="translate(320,98)"/>
<path d="M0 0 C1.58156397 2.37234596 2.69068416 4.33418135 3.75 6.9375 C4.03359375 7.60652344 4.3171875 8.27554687 4.609375 8.96484375 C5.11554674 11.6019985 4.38195205 12.76183853 3 15 C1.094753 9.89665983 -0.42589023 5.53657294 0 0 Z " fill="#E28B84" transform="translate(316,380)"/>
<path d="M0 0 C0.99 0.33 1.98 0.66 3 1 C-0.11016455 4.28788824 -3.01618925 6.83735988 -7 9 C-7 8.01 -7 7.02 -7 6 C-6.01 6 -5.02 6 -4 6 C-4 4.68 -4 3.36 -4 2 C-2.68 2 -1.36 2 0 2 C0 1.34 0 0.68 0 0 Z " fill="#E87E78" transform="translate(372,362)"/>
<path d="M0 0 C3.91211733 1.15585285 6.8745041 2.35534962 10 5 C6.1851221 6.27162597 4.6068725 5.64661571 1 4 C0.125 1.875 0.125 1.875 0 0 Z " fill="#EB9087" transform="translate(136,190)"/>
<path d="M0 0 C1.98 0 3.96 0 6 0 C6.33 0.66 6.66 1.32 7 2 C5.35 1.67 3.7 1.34 2 1 C1.87625 1.598125 1.7525 2.19625 1.625 2.8125 C1 5 1 5 -1 8 C-1.66 8 -2.32 8 -3 8 C-1.125 2.25 -1.125 2.25 0 0 Z " fill="#E77C6E" transform="translate(98,178)"/>
<path d="M0 0 C3.44795223 1.53242321 6.2199038 3.44531701 9 6 C9.8125 8.25 9.8125 8.25 10 10 C6.56870293 8.85623431 5.62153121 7.71081232 3.3125 5 C2.68988281 4.278125 2.06726563 3.55625 1.42578125 2.8125 C0 1 0 1 0 0 Z " fill="#EB8F82" transform="translate(133,150)"/>
<path d="M0 0 C0.99 0 1.98 0 3 0 C2.60246179 1.46366342 2.18118616 2.9208935 1.75 4.375 C1.51796875 5.18710938 1.2859375 5.99921875 1.046875 6.8359375 C-0.2214892 9.45785454 -1.32423308 9.99382318 -4 11 C-4 10.34 -4 9.68 -4 9 C-3.34 9 -2.68 9 -2 9 C-1.855625 8.071875 -1.71125 7.14375 -1.5625 6.1875 C-1 3 -1 3 0 0 Z " fill="#E98177" transform="translate(307,141)"/>
<path d="M0 0 C2.475 0.495 2.475 0.495 5 1 C5 1.66 5 2.32 5 3 C5.66 3 6.32 3 7 3 C7.66 4.32 8.32 5.64 9 7 C6 7 6 7 4.39453125 5.46875 C3.87246094 4.8190625 3.35039062 4.169375 2.8125 3.5 C2.28269531 2.8503125 1.75289062 2.200625 1.20703125 1.53125 C0.80871094 1.0259375 0.41039063 0.520625 0 0 Z " fill="#EC8A85" transform="translate(127,364)"/>
<path d="M0 0 C4.12751449 0.60698743 7.3321148 2.03810791 11 4 C10.67 5.32 10.34 6.64 10 8 C10 7.01 10 6.02 10 5 C8.72125 4.690625 7.4425 4.38125 6.125 4.0625 C3.89898325 3.52394756 2.05260001 3.0263 0 2 C0 1.34 0 0.68 0 0 Z " fill="#E48F86" transform="translate(147,195)"/>
<path d="M0 0 C2.91589609 4.37384413 4.30254716 7.70542471 4 13 C0.65782155 9.35398714 -0.06614818 5.7470801 -1 1 C-0.67 0.67 -0.34 0.34 0 0 Z " fill="#EB928C" transform="translate(184,117)"/>
<path d="M0 0 C2.31 0.33 4.62 0.66 7 1 C7.33 2.98 7.66 4.96 8 7 C5.96166576 5.7260411 3.96147874 4.38938077 2 3 C2 2.34 2 1.68 2 1 C1.34 0.67 0.68 0.34 0 0 Z " fill="#E8847B" transform="translate(318,336)"/>
<path d="M0 0 C0.66 0.33 1.32 0.66 2 1 C2 1.66 2 2.32 2 3 C0.7934375 3.433125 0.7934375 3.433125 -0.4375 3.875 C-3.1326468 4.73262568 -3.1326468 4.73262568 -4 7 C-5.32 7 -6.64 7 -8 7 C-8 6.34 -8 5.68 -8 5 C-7.360625 4.71125 -6.72125 4.4225 -6.0625 4.125 C-3.84793921 3.17176549 -3.84793921 3.17176549 -3 1 C-2.01 0.67 -1.02 0.34 0 0 Z " fill="#EE6960" transform="translate(108,316)"/>
<path d="M0 0 C0.99 0.33 1.98 0.66 3 1 C3 2.32 3 3.64 3 5 C3.99 4.67 4.98 4.34 6 4 C6.66 4.66 7.32 5.32 8 6 C7.34 6 6.68 6 6 6 C6.33 6.99 6.66 7.98 7 9 C6.34 9 5.68 9 5 9 C5 8.01 5 7.02 5 6 C3.68 6 2.36 6 1 6 C0.67 4.02 0.34 2.04 0 0 Z " fill="#EC7667" transform="translate(344,205)"/>
<path d="M0 0 C0.33 0 0.66 0 1 0 C0.50269348 4.97306516 -0.55302334 8.63799813 -3 13 C-3.33 13 -3.66 13 -4 13 C-4 11.02 -4 9.04 -4 7 C-3.01 6.67 -2.02 6.34 -1 6 C-0.67 4.02 -0.34 2.04 0 0 Z " fill="#E68878" transform="translate(314,127)"/>
<path d="M0 0 C0.33 0.99 0.66 1.98 1 3 C-0.65 4.65 -2.3 6.3 -4 8 C-4.66 7.67 -5.32 7.34 -6 7 C-2.25 1.125 -2.25 1.125 0 0 Z " fill="#E37D6F" transform="translate(138,344)"/>
<path d="M0 0 C1.32 0.33 2.64 0.66 4 1 C2.625 2.5 2.625 2.5 1 4 C0.34 4 -0.32 4 -1 4 C-1.33 4.99 -1.66 5.98 -2 7 C-2.66 7 -3.32 7 -4 7 C-4 5.68 -4 4.36 -4 3 C-2.68 3 -1.36 3 0 3 C0 2.01 0 1.02 0 0 Z " fill="#E7887F" transform="translate(171,343)"/>
<path d="M0 0 C0.33 1.65 0.66 3.3 1 5 C0.01 5.495 0.01 5.495 -1 6 C-1.33 4.35 -1.66 2.7 -2 1 C-3.32 1.33 -4.64 1.66 -6 2 C-6.33 1.34 -6.66 0.68 -7 0 C-4.3333581 -1.33332095 -2.83319697 -0.67102033 0 0 Z " fill="#E18F83" transform="translate(402,177)"/>
<path d="M0 0 C5.46875 4.4921875 5.46875 4.4921875 7 6 C7 6.66 7 7.32 7 8 C5.68 8.33 4.36 8.66 3 9 C2.01 6.03 1.02 3.06 0 0 Z " fill="#EE8984" transform="translate(163,145)"/>
<path d="M0 0 C0 0.66 0 1.32 0 2 C-3.3 2.33 -6.6 2.66 -10 3 C-4.28571429 -1.28571429 -4.28571429 -1.28571429 0 0 Z " fill="#E49890" transform="translate(200,91)"/>
<path d="M0 0 C0.66666667 1.33333333 1.33333333 2.66666667 2 4 C2.556875 5.03125 3.11375 6.0625 3.6875 7.125 C4.120625 8.07375 4.55375 9.0225 5 10 C4.67 10.66 4.34 11.32 4 12 C1.11376003 8.74134196 -0.64299639 6.4030445 -1 2 C-0.67 1.34 -0.34 0.68 0 0 Z " fill="#EA9085" transform="translate(304,350)"/>
<path d="M0 0 C0.33 0.66 0.66 1.32 1 2 C-0.125 5.0625 -0.125 5.0625 -2 8 C-4.6875 8.875 -4.6875 8.875 -7 9 C-5.44499019 5.18315774 -2.96404505 2.80804268 0 0 Z " fill="#DE8077" transform="translate(146,335)"/>
<path d="M0 0 C1.32 0 2.64 0 4 0 C4.33 0.99 4.66 1.98 5 3 C3.02253397 3.73080266 1.01927511 4.39421747 -1 5 C-1.66 4.67 -2.32 4.34 -3 4 C-1.75 2 -1.75 2 0 0 Z " fill="#E78B84" transform="translate(166,315)"/>
<path d="M0 0 C0.66 0 1.32 0 2 0 C1.38461538 6.52307692 1.38461538 6.52307692 -0.5625 8.9375 C-1.036875 9.288125 -1.51125 9.63875 -2 10 C-2.33 9.34 -2.66 8.68 -3 8 C-2.34 7.01 -1.68 6.02 -1 5 C-0.61500109 3.34450469 -0.27206865 1.6777567 0 0 Z " fill="#DB7462" transform="translate(155,200)"/>
<path d="M0 0 C0 0.99 0 1.98 0 3 C-3.3 2.34 -6.6 1.68 -10 1 C-8.68 0.67 -7.36 0.34 -6 0 C-3 -1 -3 -1 0 0 Z " fill="#E77262" transform="translate(364,305)"/>
<path d="M0 0 C0.99 0.33 1.98 0.66 3 1 C0.36 2.98 -2.28 4.96 -5 7 C-5 5.35 -5 3.7 -5 2 C-3.68 2.33 -2.36 2.66 -1 3 C-0.67 2.01 -0.34 1.02 0 0 Z " fill="#E47870" transform="translate(339,176)"/>
<path d="M0 0 C1.5625 1.6875 1.5625 1.6875 3 4 C2.6875 6.75 2.6875 6.75 2 9 C1.01 8.67 0.02 8.34 -1 8 C-0.7525 7.13375 -0.7525 7.13375 -0.5 6.25 C0.14462031 3.73335631 0.14462031 3.73335631 0 0 Z " fill="#E6958D" transform="translate(321,393)"/>
<path d="M0 0 C0.99 0 1.98 0 3 0 C3.33 2.97 3.66 5.94 4 9 C1.49701566 6.06171403 0.53069061 3.82097239 0 0 Z " fill="#EB8E89" transform="translate(295,395)"/>
<path d="M0 0 C0.99 0.33 1.98 0.66 3 1 C-1.75 5.875 -1.75 5.875 -4 7 C-3.6875 5.0625 -3.6875 5.0625 -3 3 C-2.01 2.67 -1.02 2.34 0 2 C0 1.34 0 0.68 0 0 Z " fill="#DA7770" transform="translate(164,350)"/>
<path d="M0 0 C2.15377564 2.62198774 3.40072174 4.64404172 4 8 C3.01 7.67 2.02 7.34 1 7 C1 6.34 1 5.68 1 5 C0.34 5 -0.32 5 -1 5 C-0.67 3.35 -0.34 1.7 0 0 Z " fill="#EC8A80" transform="translate(211,121)"/>
<path d="M0 0 C1.32 0.33 2.64 0.66 4 1 C2.87548273 3.9719385 1.77706209 6.33440687 0 9 C0 6.03 0 3.06 0 0 Z " fill="#E88B84" transform="translate(200,390)"/>
<path d="M0 0 C2.18975773 3.28463659 2.99806563 6.20696275 4 10 C3.01 10.495 3.01 10.495 2 11 C0.57741188 7.17679443 -0.24042276 4.08718695 0 0 Z " fill="#E5857B" transform="translate(284,364)"/>
<path d="M0 0 C0.66 0.99 1.32 1.98 2 3 C1.67 3.99 1.34 4.98 1 6 C0.34 6 -0.32 6 -1 6 C-1 6.66 -1 7.32 -1 8 C-1.66 8 -2.32 8 -3 8 C-1.125 2.25 -1.125 2.25 0 0 Z " fill="#F0978F" transform="translate(188,362)"/>
<path d="M0 0 C2.97 0.495 2.97 0.495 6 1 C6.66 2.98 7.32 4.96 8 7 C3.8575633 5.61918777 2.67796901 3.40174442 0 0 Z " fill="#EF8D8A" transform="translate(345,363)"/>
<path d="M0 0 C-1.98 0.99 -1.98 0.99 -4 2 C-4 2.66 -4 3.32 -4 4 C-6.97 3.505 -6.97 3.505 -10 3 C-7.28464405 0.28464405 -3.67870689 -1.83935344 0 0 Z " fill="#EF8682" transform="translate(295,345)"/>
<path d="M0 0 C3 1.1875 3 1.1875 5 3.1875 C-1.625 2.4375 -1.625 2.4375 -5 0.1875 C-3 -0.8125 -3 -0.8125 0 0 Z " fill="#E58374" transform="translate(214,346.8125)"/>
<path d="M0 0 C2.97 0.495 2.97 0.495 6 1 C5.01 2.485 5.01 2.485 4 4 C2.68 4 1.36 4 0 4 C0 2.68 0 1.36 0 0 Z " fill="#F96847" transform="translate(100,179)"/>
<path d="M0 0 C2.50298434 2.93828597 3.46930939 5.17902761 4 9 C3.01 8.67 2.02 8.34 1 8 C0.67 5.36 0.34 2.72 0 0 Z " fill="#EA9A94" transform="translate(311,368)"/>
<path d="M0 0 C1.5 1.3125 1.5 1.3125 3 3 C3 3.99 3 4.98 3 6 C1.35 5.67 -0.3 5.34 -2 5 C-2 4.34 -2 3.68 -2 3 C-1.34 3 -0.68 3 0 3 C0 2.01 0 1.02 0 0 Z " fill="#F17C75" transform="translate(363,345)"/>
<path d="M0 0 C1.98 0.495 1.98 0.495 4 1 C2.625 3 2.625 3 1 5 C0.34 5 -0.32 5 -1 5 C-0.67 3.35 -0.34 1.7 0 0 Z " fill="#E57270" transform="translate(177,336)"/>
<path d="M0 0 C1.32 0 2.64 0 4 0 C4 0.66 4 1.32 4 2 C4.99 2.33 5.98 2.66 7 3 C7 3.66 7 4.32 7 5 C6.01 5 5.02 5 4 5 C3.67 3.68 3.34 2.36 3 1 C1.35 1.33 -0.3 1.66 -2 2 C-1.34 1.34 -0.68 0.68 0 0 Z " fill="#ED6F65" transform="translate(145,280)"/>
<path d="M0 0 C0.99 0 1.98 0 3 0 C2 3 2 3 -0.9375 4.75 C-2.4534375 5.36875 -2.4534375 5.36875 -4 6 C-4.66 5.67 -5.32 5.34 -6 5 C-5.195625 4.54625 -4.39125 4.0925 -3.5625 3.625 C-0.91143428 2.25274335 -0.91143428 2.25274335 0 0 Z " fill="#E57B6E" transform="translate(381,207)"/>
<path d="M0 0 C1.32 0.33 2.64 0.66 4 1 C4 1.99 4 2.98 4 4 C5.65 4 7.3 4 9 4 C9 4.33 9 4.66 9 5 C6.1875 5.3125 6.1875 5.3125 3 5 C1.125 2.5 1.125 2.5 0 0 Z " fill="#EC7168" transform="translate(161,177)"/>
<path d="M0 0 C1.0326802 2.78823655 1.04509293 3.8677274 0.0625 6.75 C-0.288125 7.4925 -0.63875 8.235 -1 9 C-1.66 9 -2.32 9 -3 9 C-2.44271087 5.65626525 -1.64826111 2.96687001 0 0 Z " fill="#E5928B" transform="translate(284,136)"/>
</svg>
